<svg id="Capa_1" data-name="Capa 1" xmlns="http://www.w3.org/2000/svg" viewBox="0 0 576.57 182.78"><defs><style>.cls-1{fill:#00c1de;}</style></defs><title>logo_puce</title><path class="cls-1" d="M187.61,85.36h-3.47V56.81H192a23.19,23.19,0,0,1,3.27.21,14.08,14.08,0,0,1,2.76.66,7.86,7.86,0,0,1,3.88,2.74,7.44,7.44,0,0,1,1.32,4.49,8.15,8.15,0,0,1-.86,3.83,7.55,7.55,0,0,1-2.5,2.76,12.11,12.11,0,0,1-4,1.67,22.88,22.88,0,0,1-5.34.56c-.95,0-1.94,0-3-.12Zm0-14.92c.47.06,1,.11,1.47.13s1,0,1.45,0a19.12,19.12,0,0,0,4.18-.39,8.11,8.11,0,0,0,2.82-1.12,4.42,4.42,0,0,0,1.58-1.78,5.7,5.7,0,0,0,.49-2.41,4.42,4.42,0,0,0-.8-2.73,4.93,4.93,0,0,0-2.27-1.62,8.86,8.86,0,0,0-2.11-.48,23.7,23.7,0,0,0-2.77-.14h-4Z"/><path class="cls-1" d="M224.77,75.24a13.24,13.24,0,0,1-.68,4.35A9.79,9.79,0,0,1,222.16,83a8.48,8.48,0,0,1-3,2.16,9.8,9.8,0,0,1-4,.77,10.06,10.06,0,0,1-4-.77,8.37,8.37,0,0,1-3-2.16,9.45,9.45,0,0,1-1.91-3.36,13.51,13.51,0,0,1-.66-4.35,13.29,13.29,0,0,1,.68-4.37,9.83,9.83,0,0,1,1.93-3.37,8.4,8.4,0,0,1,3-2.18,10,10,0,0,1,4-.77,10.15,10.15,0,0,1,4,.77,8.3,8.3,0,0,1,3,2.18,9.77,9.77,0,0,1,1.9,3.37,13.69,13.69,0,0,1,.66,4.37m-3.46,0a11.12,11.12,0,0,0-.46-3.34,7.37,7.37,0,0,0-1.28-2.48,5.39,5.39,0,0,0-2-1.53,6.09,6.09,0,0,0-4.95,0,5.39,5.39,0,0,0-2,1.53,7.46,7.46,0,0,0-1.28,2.48,12.31,12.31,0,0,0,0,6.65A7.08,7.08,0,0,0,210.74,81a5.4,5.4,0,0,0,2,1.53,5.73,5.73,0,0,0,2.47.52,5.67,5.67,0,0,0,2.46-.52A5.34,5.34,0,0,0,219.58,81a7.22,7.22,0,0,0,1.28-2.46,11.1,11.1,0,0,0,.46-3.32"/><path class="cls-1" d="M233.19,67.9h.06a11,11,0,0,1,1.23-1.31A7.88,7.88,0,0,1,236,65.53a7.63,7.63,0,0,1,1.82-.71,8.4,8.4,0,0,1,2.17-.26,8.5,8.5,0,0,1,2.6.39,5.44,5.44,0,0,1,2.11,1.24,6,6,0,0,1,1.42,2.23,9.54,9.54,0,0,1,.52,3.38V85.35h-3.3v-13a5.69,5.69,0,0,0-1-3.78,3.73,3.73,0,0,0-3-1.15,6.36,6.36,0,0,0-3.3.95A8.79,8.79,0,0,0,233.3,71v14.4H230V65.09h2.56Z"/><path class="cls-1" d="M263.72,85.4a7.34,7.34,0,0,1-1.3.32,14,14,0,0,1-2.09.17,8.76,8.76,0,0,1-2.77-.39,5.3,5.3,0,0,1-2-1.13,4.65,4.65,0,0,1-1.16-1.78,6.67,6.67,0,0,1-.38-2.32V67.92h-3.9V65.09h3.9V59.55h3.3v5.55h6.06v2.83h-6.06V79.74a3.94,3.94,0,0,0,.21,1.3,2.65,2.65,0,0,0,.64,1,3,3,0,0,0,1.12.68A4.93,4.93,0,0,0,261,83a10.37,10.37,0,0,0,1.39-.1,11,11,0,0,0,1.36-.29Z"/><path class="cls-1" d="M268.32,56.68h3.31v3.68h-3.31Zm.09,8.41h3.31V85.35h-3.31Z"/><path class="cls-1" d="M282.64,67.93V85.36h-3.31V67.93h-3.56V65.1h3.56V62.72a9.38,9.38,0,0,1,.8-4.08,7.59,7.59,0,0,1,2.11-2.73,8.31,8.31,0,0,1,3-1.51,12.93,12.93,0,0,1,3.46-.47c.42,0,.87,0,1.33.06s.92.08,1.37.14.88.14,1.29.22a11.21,11.21,0,0,1,1.09.28v2.82q-1.22-.31-2.33-.47a16,16,0,0,0-2.36-.18,7,7,0,0,0-4.79,1.48,5.72,5.72,0,0,0-1.65,4.5V65.1h12.5V85.36h-3.31V67.93Z"/><path class="cls-1" d="M310.45,64.55a12.32,12.32,0,0,1,2.82.31,8.36,8.36,0,0,1,2.31.86v2.75a17.71,17.71,0,0,0-2.48-.77,10,10,0,0,0-2.3-.26,7.77,7.77,0,0,0-2.45.41,5.73,5.73,0,0,0-2.18,1.33,6.7,6.7,0,0,0-1.55,2.46,10.58,10.58,0,0,0-.59,3.78,9.85,9.85,0,0,0,.44,3,6.86,6.86,0,0,0,1.3,2.4,5.85,5.85,0,0,0,2.17,1.57,7.46,7.46,0,0,0,3,.57,12.1,12.1,0,0,0,2.5-.27,14.43,14.43,0,0,0,2.45-.75v2.75a5.52,5.52,0,0,1-.95.42,10.16,10.16,0,0,1-1.29.37,13.39,13.39,0,0,1-1.49.26,12.6,12.6,0,0,1-1.58.1,12,12,0,0,1-3.87-.62,8.66,8.66,0,0,1-3.19-1.9,9,9,0,0,1-2.16-3.24,12.46,12.46,0,0,1-.79-4.65,14.32,14.32,0,0,1,.42-3.6,10.72,10.72,0,0,1,1.14-2.82A8.55,8.55,0,0,1,303.83,67a9.7,9.7,0,0,1,2.07-1.4,9.38,9.38,0,0,1,2.27-.79,11.23,11.23,0,0,1,2.28-.25"/><path class="cls-1" d="M321,56.68h3.31v3.68H321Zm.09,8.41h3.31V85.35h-3.31Z"/><path class="cls-1" d="M342.89,83.11h-.09a6.22,6.22,0,0,1-1,1,7.09,7.09,0,0,1-1.43.89,8.62,8.62,0,0,1-1.77.63,8.8,8.8,0,0,1-2,.23,8.11,8.11,0,0,1-2.7-.43,5.73,5.73,0,0,1-3.49-3.34,7.39,7.39,0,0,1-.49-2.76,6.54,6.54,0,0,1,.54-2.71,5.78,5.78,0,0,1,1.53-2,7,7,0,0,1,2.36-1.28,9.85,9.85,0,0,1,3-.44,16.34,16.34,0,0,1,2.92.27,15.77,15.77,0,0,1,2.39.64h.09V72.4a9.05,9.05,0,0,0-.11-1.47,3.79,3.79,0,0,0-.36-1.13,4.32,4.32,0,0,0-1.77-1.69,6.86,6.86,0,0,0-3.28-.67,14.29,14.29,0,0,0-2.89.29,19.1,19.1,0,0,0-2.7.81V65.75a9.71,9.71,0,0,1,1.2-.48c.46-.15.95-.27,1.47-.39a16,16,0,0,1,1.62-.24,17,17,0,0,1,1.71-.09,10.23,10.23,0,0,1,5,1.09,6.46,6.46,0,0,1,2.81,2.88,5.66,5.66,0,0,1,.46,1.5,11.12,11.12,0,0,1,.14,1.8V85.36h-2.77Zm-.17-6.65c-.61-.17-1.33-.33-2.17-.5a16.66,16.66,0,0,0-2.76-.25,5.35,5.35,0,0,0-3.29.89,3.23,3.23,0,0,0-1.19,2.75,4.17,4.17,0,0,0,.3,1.65,3.17,3.17,0,0,0,.82,1.16,3.3,3.3,0,0,0,1.23.68,4.9,4.9,0,0,0,1.52.22,6,6,0,0,0,2-.31,8.2,8.2,0,0,0,1.62-.73,9.81,9.81,0,0,0,1.21-.85c.33-.29.57-.51.73-.66Z"/><path class="cls-1" d="M371.35,82.8a9.41,9.41,0,0,0,2.76-.37,6.78,6.78,0,0,0,2.1-1,6,6,0,0,0,1.49-1.59,7.62,7.62,0,0,0,.92-2.06,8.09,8.09,0,0,0,.3-1.57c.06-.57.09-1.13.09-1.67V56.81h3.48V74.43c0,.66,0,1.37-.11,2.09a13.77,13.77,0,0,1-.34,2,11,11,0,0,1-1.22,2.93,8.13,8.13,0,0,1-2.11,2.32,9.81,9.81,0,0,1-3.13,1.54,16.88,16.88,0,0,1-8.39,0,9.89,9.89,0,0,1-3-1.42,8,8,0,0,1-2.08-2.15,10.88,10.88,0,0,1-1.26-2.72,13.64,13.64,0,0,1-.46-2.29,21.21,21.21,0,0,1-.14-2.36V56.81h3.48V74.52a14,14,0,0,0,.14,2,9.21,9.21,0,0,0,.43,1.84,6.53,6.53,0,0,0,2.49,3.27,8,8,0,0,0,4.6,1.19"/><path class="cls-1" d="M392.4,67.9h.06a10.6,10.6,0,0,1,1.23-1.31,8,8,0,0,1,1.5-1.07,7.67,7.67,0,0,1,1.82-.71,8.4,8.4,0,0,1,2.17-.26,8.53,8.53,0,0,1,2.6.39,5.44,5.44,0,0,1,2.11,1.24,6,6,0,0,1,1.42,2.23,9.54,9.54,0,0,1,.52,3.38V85.35h-3.3v-13a5.66,5.66,0,0,0-1-3.78,3.72,3.72,0,0,0-3-1.15,6.36,6.36,0,0,0-3.3.95A8.79,8.79,0,0,0,392.5,71v14.4h-3.3V65.09h2.56Z"/><path class="cls-1" d="M412.36,56.68h3.31v3.68h-3.31Zm.09,8.41h3.31V85.35h-3.31Z"/><path class="cls-1" d="M429.2,82q.73-2.23,2-5.65l4.06-11.26h3.31L430.9,85.36h-3.43L419.81,65.1h3.31l4,11.26q1.2,3.32,2,5.65Z"/><path class="cls-1" d="M452.16,83a15.66,15.66,0,0,0,3-.27,18,18,0,0,0,2.7-.75v2.75a10.63,10.63,0,0,1-2.69.84,17.78,17.78,0,0,1-3.43.31,14.68,14.68,0,0,1-4.09-.55,8.06,8.06,0,0,1-5.49-5,13.11,13.11,0,0,1-.79-4.81,13.7,13.7,0,0,1,.76-4.81,10.13,10.13,0,0,1,2-3.4,8.48,8.48,0,0,1,2.94-2.05,9.08,9.08,0,0,1,3.47-.68,8.75,8.75,0,0,1,3.18.57,6.53,6.53,0,0,1,2.56,1.78A8.78,8.78,0,0,1,458,70a15,15,0,0,1,.63,4.61v.43c0,.12,0,.4,0,.82h-14a8.29,8.29,0,0,0,.59,3.3,5.83,5.83,0,0,0,1.6,2.2,6.24,6.24,0,0,0,2.38,1.22,10.54,10.54,0,0,0,2.94.39m-1.74-15.61a5,5,0,0,0-2.13.45,5.61,5.61,0,0,0-1.72,1.21,6.28,6.28,0,0,0-1.18,1.81,7,7,0,0,0-.56,2.2h10.37a7.59,7.59,0,0,0-.32-2.22A5.45,5.45,0,0,0,454,69a4.36,4.36,0,0,0-1.49-1.21,4.59,4.59,0,0,0-2.05-.43"/><path class="cls-1" d="M475.39,67.78h-.26a12.23,12.23,0,0,0-2.3.21,9.73,9.73,0,0,0-2.12.65,8,8,0,0,0-1.79,1.08,5.86,5.86,0,0,0-1.34,1.51V85.35h-3.3V65.09h2.56l.64,3.22h.06a7.75,7.75,0,0,1,1.21-1.47,8.62,8.62,0,0,1,1.61-1.19,8.32,8.32,0,0,1,2-.8,8.61,8.61,0,0,1,2.24-.29H475l.4,0Z"/><path class="cls-1" d="M481.28,70.49a2.47,2.47,0,0,0,.35,1.37,2.8,2.8,0,0,0,.95.86,6.26,6.26,0,0,0,1.37.55c.53.14,1.06.27,1.62.38.76.17,1.49.35,2.17.56a6.48,6.48,0,0,1,1.89.93,4.57,4.57,0,0,1,1.4,1.68,6.13,6.13,0,0,1,.53,2.74,6,6,0,0,1-.6,2.73,5.6,5.6,0,0,1-1.68,2,8,8,0,0,1-2.6,1.22,12.58,12.58,0,0,1-3.33.41,16.25,16.25,0,0,1-2-.11,13.06,13.06,0,0,1-1.6-.3c-.46-.12-.85-.25-1.18-.38a6.15,6.15,0,0,1-.81-.36V82a17.6,17.6,0,0,0,2.49.82,11.8,11.8,0,0,0,2.73.3,9.85,9.85,0,0,0,2.11-.21,5.39,5.39,0,0,0,1.62-.63,3,3,0,0,0,1-1,2.89,2.89,0,0,0,.37-1.47,2.66,2.66,0,0,0-.33-1.41,2.85,2.85,0,0,0-.9-.92,5.42,5.42,0,0,0-1.31-.6c-.5-.15-1-.3-1.56-.42-.71-.15-1.43-.34-2.17-.55a8,8,0,0,1-2-.9,4.46,4.46,0,0,1-1.46-1.57,5.24,5.24,0,0,1-.55-2.56A6.18,6.18,0,0,1,478.4,68,5.45,5.45,0,0,1,480,66.1a6.81,6.81,0,0,1,2.28-1.16,9.62,9.62,0,0,1,2.75-.39,14.28,14.28,0,0,1,3.12.32,15.47,15.47,0,0,1,2.62.81v2.82a18.94,18.94,0,0,0-2.53-.8,12.38,12.38,0,0,0-2.63-.33,7.07,7.07,0,0,0-2,.24,3.85,3.85,0,0,0-1.33.65,2.57,2.57,0,0,0-.76,1,3.23,3.23,0,0,0-.24,1.25"/><path class="cls-1" d="M496.7,56.68H500v3.68H496.7Zm.09,8.41h3.31V85.35h-3.31Z"/><path class="cls-1" d="M505.53,75.48a15.26,15.26,0,0,1,.42-3.74,11.74,11.74,0,0,1,1.1-2.84,8.08,8.08,0,0,1,1.6-2,9.34,9.34,0,0,1,1.9-1.33,8.08,8.08,0,0,1,2-.74,9.26,9.26,0,0,1,1.91-.22,7.79,7.79,0,0,1,3.22.62A7.57,7.57,0,0,1,520.12,67h.06V54.47h3.31V85.35H521l-.68-2.26h-.09a9.84,9.84,0,0,1-.9,1,6.11,6.11,0,0,1-1.2.91,6.47,6.47,0,0,1-1.6.65,8.16,8.16,0,0,1-2.1.24,9.7,9.7,0,0,1-3.26-.56,7.54,7.54,0,0,1-2.85-1.81,9.19,9.19,0,0,1-2-3.22,13.35,13.35,0,0,1-.77-4.81m3.46,0a11.68,11.68,0,0,0,.4,3.17A7.1,7.1,0,0,0,510.52,81a5,5,0,0,0,1.83,1.52,5.56,5.56,0,0,0,2.5.53,6.05,6.05,0,0,0,1.89-.28,6.65,6.65,0,0,0,2.68-1.61,6.66,6.66,0,0,0,.76-.89V69.7A8,8,0,0,0,517.82,68a6.74,6.74,0,0,0-2.9-.63,6.24,6.24,0,0,0-2,.34A4.92,4.92,0,0,0,511,69a6.92,6.92,0,0,0-1.46,2.46,11.42,11.42,0,0,0-.58,4"/><path class="cls-1" d="M542,83.11h-.09a6.22,6.22,0,0,1-1,1,7.09,7.09,0,0,1-1.43.89,8.62,8.62,0,0,1-1.77.63,8.8,8.8,0,0,1-2,.23,8.11,8.11,0,0,1-2.7-.43,5.76,5.76,0,0,1-3.49-3.34,7.39,7.39,0,0,1-.49-2.76,6.54,6.54,0,0,1,.54-2.71,5.78,5.78,0,0,1,1.53-2,7,7,0,0,1,2.36-1.28,9.85,9.85,0,0,1,3-.44,16.34,16.34,0,0,1,2.92.27,15.62,15.62,0,0,1,2.39.64h.09V72.4a9.05,9.05,0,0,0-.11-1.47,3.79,3.79,0,0,0-.36-1.13,4.29,4.29,0,0,0-1.77-1.69,6.86,6.86,0,0,0-3.28-.67,14.29,14.29,0,0,0-2.89.29,19.1,19.1,0,0,0-2.7.81V65.75a9.71,9.71,0,0,1,1.2-.48c.46-.15.95-.27,1.47-.39a16,16,0,0,1,1.62-.24,17,17,0,0,1,1.71-.09,10.23,10.23,0,0,1,5,1.09,6.46,6.46,0,0,1,2.81,2.88A5.66,5.66,0,0,1,545,70a11.12,11.12,0,0,1,.14,1.8V85.36h-2.77Zm-.17-6.65c-.61-.17-1.33-.33-2.17-.5a16.66,16.66,0,0,0-2.76-.25,5.36,5.36,0,0,0-3.29.89,3.23,3.23,0,0,0-1.19,2.75,4.17,4.17,0,0,0,.3,1.65,3.17,3.17,0,0,0,.82,1.16,3.3,3.3,0,0,0,1.23.68,4.9,4.9,0,0,0,1.52.22,6,6,0,0,0,2-.31,8.2,8.2,0,0,0,1.62-.73,9.81,9.81,0,0,0,1.21-.85c.33-.29.58-.51.73-.66Z"/><path class="cls-1" d="M550.32,75.48a15.26,15.26,0,0,1,.42-3.74,11.74,11.74,0,0,1,1.1-2.84,8.08,8.08,0,0,1,1.6-2,9.34,9.34,0,0,1,1.9-1.33,8.08,8.08,0,0,1,2-.74,9.26,9.26,0,0,1,1.91-.22,7.79,7.79,0,0,1,3.22.62A7.57,7.57,0,0,1,564.91,67H565V54.47h3.31V85.35h-2.5l-.68-2.26H565a9.84,9.84,0,0,1-.9,1,6.11,6.11,0,0,1-1.2.91,6.47,6.47,0,0,1-1.6.65,8.16,8.16,0,0,1-2.1.24,9.7,9.7,0,0,1-3.26-.56,7.54,7.54,0,0,1-2.85-1.81,9.19,9.19,0,0,1-2-3.22,13.35,13.35,0,0,1-.77-4.81m3.46,0a11.68,11.68,0,0,0,.4,3.17A7.1,7.1,0,0,0,555.31,81a5,5,0,0,0,1.83,1.52,5.56,5.56,0,0,0,2.5.53,6.05,6.05,0,0,0,1.89-.28,6.65,6.65,0,0,0,2.68-1.61,7,7,0,0,0,.76-.89V69.7A8,8,0,0,0,562.61,68a6.74,6.74,0,0,0-2.9-.63,6.24,6.24,0,0,0-2,.34A4.92,4.92,0,0,0,555.82,69a7,7,0,0,0-1.47,2.46,11.54,11.54,0,0,0-.57,4"/><path class="cls-1" d="M197.93,98.2a13,13,0,0,0-4.48.76,10,10,0,0,0-3.62,2.26,10.63,10.63,0,0,0-2.41,3.73,14,14,0,0,0-.89,5.19,14.39,14.39,0,0,0,.82,5.11,9.05,9.05,0,0,0,6,5.68,15.36,15.36,0,0,0,4.74.68c.47,0,1,0,1.51-.07s1.07-.12,1.61-.21,1.06-.21,1.58-.32,1-.26,1.37-.4v3.07a13.82,13.82,0,0,1-2.92.75,20.62,20.62,0,0,1-3.41.27,18.5,18.5,0,0,1-6.31-1,12.38,12.38,0,0,1-4.62-2.85,12,12,0,0,1-2.83-4.53,19.34,19.34,0,0,1,.05-12.19,13.5,13.5,0,0,1,2.93-4.8,13.23,13.23,0,0,1,4.63-3.13,16.06,16.06,0,0,1,6.11-1.11c.6,0,1.18,0,1.77.07s1.14.12,1.67.21,1,.21,1.48.33a10.38,10.38,0,0,1,1.17.41V99.2a21.68,21.68,0,0,0-2.83-.71,16.38,16.38,0,0,0-3.09-.29"/><path class="cls-1" d="M221.32,121.95h-.09a6.38,6.38,0,0,1-1,1,7.09,7.09,0,0,1-1.43.9,8.9,8.9,0,0,1-1.77.63,8.78,8.78,0,0,1-2,.23,8,8,0,0,1-2.7-.44,5.69,5.69,0,0,1-3.49-3.34,7.31,7.31,0,0,1-.49-2.75,6.45,6.45,0,0,1,.54-2.71,5.76,5.76,0,0,1,1.53-2,6.88,6.88,0,0,1,2.36-1.28,9.84,9.84,0,0,1,3-.45,17.21,17.21,0,0,1,2.92.28,15,15,0,0,1,2.39.64h.09v-1.41a9,9,0,0,0-.11-1.47,3.75,3.75,0,0,0-.36-1.13,4.32,4.32,0,0,0-1.77-1.69,6.8,6.8,0,0,0-3.28-.67,13.63,13.63,0,0,0-2.89.29,19,19,0,0,0-2.7.8v-2.77a8.38,8.38,0,0,1,1.2-.48,13.92,13.92,0,0,1,1.47-.38,16,16,0,0,1,1.62-.24c.57-.05,1.14-.09,1.71-.09a10.25,10.25,0,0,1,5,1.09,6.54,6.54,0,0,1,2.81,2.88,5.84,5.84,0,0,1,.46,1.51,11.08,11.08,0,0,1,.14,1.8v13.52h-2.77Zm-.17-6.66c-.61-.17-1.33-.33-2.17-.49a16.2,16.2,0,0,0-2.76-.25,5.35,5.35,0,0,0-3.29.89,3.22,3.22,0,0,0-1.19,2.75,4.17,4.17,0,0,0,.3,1.65,3.11,3.11,0,0,0,.82,1.16,3.3,3.3,0,0,0,1.23.68,4.9,4.9,0,0,0,1.52.23,6,6,0,0,0,2-.31,8.52,8.52,0,0,0,1.62-.73,8.87,8.87,0,0,0,1.21-.85c.33-.28.57-.5.73-.66Z"/><path class="cls-1" d="M241.54,124.22a6.93,6.93,0,0,1-1.3.32,14,14,0,0,1-2.09.17,8.61,8.61,0,0,1-2.77-.4,5.29,5.29,0,0,1-2-1.13,4.65,4.65,0,0,1-1.16-1.78,6.68,6.68,0,0,1-.38-2.33V106.76H228v-2.84h3.9V98.37h3.3v5.55h6.06v2.84h-6.06v11.82a3.92,3.92,0,0,0,.21,1.3,2.66,2.66,0,0,0,.64,1,3.1,3.1,0,0,0,1.12.68,5,5,0,0,0,1.64.24,9.07,9.07,0,0,0,1.4-.11,12.11,12.11,0,0,0,1.36-.28Z"/><path class="cls-1" d="M264.08,114.07a13.22,13.22,0,0,1-.68,4.35,9.79,9.79,0,0,1-1.93,3.36,8.61,8.61,0,0,1-3,2.17,9.88,9.88,0,0,1-4,.77,10.14,10.14,0,0,1-4-.77,8.5,8.5,0,0,1-3-2.17,9.45,9.45,0,0,1-1.91-3.36,13.48,13.48,0,0,1-.66-4.35,13.3,13.3,0,0,1,.68-4.37,9.92,9.92,0,0,1,1.93-3.37,8.4,8.4,0,0,1,3-2.18,9.9,9.9,0,0,1,4-.77,10.07,10.07,0,0,1,4,.77,8.3,8.3,0,0,1,3,2.18,9.93,9.93,0,0,1,1.9,3.37,13.7,13.7,0,0,1,.66,4.37m-3.46,0a11.12,11.12,0,0,0-.46-3.34,7.5,7.5,0,0,0-1.28-2.48,5.39,5.39,0,0,0-2-1.53,6.09,6.09,0,0,0-4.95,0,5.39,5.39,0,0,0-2,1.53,7.5,7.5,0,0,0-1.28,2.48,12.31,12.31,0,0,0,0,6.65,7.11,7.11,0,0,0,1.29,2.46,5.56,5.56,0,0,0,2,1.53,5.8,5.8,0,0,0,2.47.52,5.74,5.74,0,0,0,2.46-.52,5.49,5.49,0,0,0,1.94-1.53,7.33,7.33,0,0,0,1.28-2.46,11.08,11.08,0,0,0,.46-3.32m-1.15-21.31L256,100.21h-2.77l2.63-7.44Z"/><rect class="cls-1" x="269.52" y="93.3" width="3.31" height="30.89"/><path class="cls-1" d="M279.57,95.51h3.31V99.2h-3.31Zm.08,8.41H283v20.27h-3.31Z"/><path class="cls-1" d="M298.27,103.38a12.58,12.58,0,0,1,2.82.31,8.12,8.12,0,0,1,2.3.86v2.75a18.21,18.21,0,0,0-2.47-.77,10.63,10.63,0,0,0-2.3-.25,7.77,7.77,0,0,0-2.45.41A5.69,5.69,0,0,0,294,108a6.66,6.66,0,0,0-1.55,2.45,10.64,10.64,0,0,0-.59,3.79,9.89,9.89,0,0,0,.44,3,6.81,6.81,0,0,0,1.3,2.4,5.9,5.9,0,0,0,2.17,1.57,7.47,7.47,0,0,0,3,.57,12.1,12.1,0,0,0,2.5-.27,14.43,14.43,0,0,0,2.45-.75v2.75a5.9,5.9,0,0,1-.95.42,10.19,10.19,0,0,1-1.29.38,14.68,14.68,0,0,1-1.49.25,12.6,12.6,0,0,1-1.58.1,12,12,0,0,1-3.87-.62,8.66,8.66,0,0,1-3.19-1.9,9,9,0,0,1-2.16-3.24,12.48,12.48,0,0,1-.79-4.65,14.41,14.41,0,0,1,.42-3.6,10.79,10.79,0,0,1,1.14-2.81,8.28,8.28,0,0,1,1.7-2.07,9.48,9.48,0,0,1,4.34-2.19,11.23,11.23,0,0,1,2.28-.25"/><path class="cls-1" d="M320.58,121.95h-.09a6.19,6.19,0,0,1-1,1,7.09,7.09,0,0,1-1.43.9,8.9,8.9,0,0,1-1.77.63,8.78,8.78,0,0,1-2,.23,8,8,0,0,1-2.7-.44,5.72,5.72,0,0,1-3.49-3.34,7.31,7.31,0,0,1-.49-2.75,6.52,6.52,0,0,1,.54-2.71,5.76,5.76,0,0,1,1.53-2,6.88,6.88,0,0,1,2.36-1.28,9.84,9.84,0,0,1,3-.45,17.21,17.21,0,0,1,2.92.28,15,15,0,0,1,2.39.64h.09v-1.41a9,9,0,0,0-.11-1.47,3.75,3.75,0,0,0-.36-1.13,4.32,4.32,0,0,0-1.77-1.69,6.8,6.8,0,0,0-3.28-.67,13.63,13.63,0,0,0-2.89.29,19,19,0,0,0-2.7.8v-2.77a8.38,8.38,0,0,1,1.2-.48,13.92,13.92,0,0,1,1.47-.38,16,16,0,0,1,1.62-.24c.57-.05,1.14-.09,1.71-.09a10.23,10.23,0,0,1,5,1.09,6.54,6.54,0,0,1,2.81,2.88,5.84,5.84,0,0,1,.46,1.51,11.08,11.08,0,0,1,.14,1.8v13.52h-2.77Zm-.17-6.66c-.61-.17-1.33-.33-2.17-.49a16.2,16.2,0,0,0-2.76-.25,5.36,5.36,0,0,0-3.29.89,3.22,3.22,0,0,0-1.19,2.75,4.17,4.17,0,0,0,.3,1.65,3.11,3.11,0,0,0,.82,1.16,3.3,3.3,0,0,0,1.23.68,4.9,4.9,0,0,0,1.52.23,6,6,0,0,0,2-.31,8.52,8.52,0,0,0,1.62-.73,8.87,8.87,0,0,0,1.21-.85c.33-.28.57-.5.73-.66Z"/><path class="cls-1" d="M337.69,114.3a15.23,15.23,0,0,1,.42-3.74,11.86,11.86,0,0,1,1.1-2.85,8.14,8.14,0,0,1,1.6-2,9.51,9.51,0,0,1,1.9-1.33,7.71,7.71,0,0,1,2-.74,8.67,8.67,0,0,1,1.91-.23,7.71,7.71,0,0,1,3.22.62,7.5,7.5,0,0,1,2.45,1.82h.06V93.3h3.31v30.88h-2.5l-.68-2.26h-.09a9.36,9.36,0,0,1-.9,1,5.76,5.76,0,0,1-1.2.91,6.66,6.66,0,0,1-1.6.65,8.16,8.16,0,0,1-2.1.24,9.82,9.82,0,0,1-3.26-.56,7.49,7.49,0,0,1-2.85-1.81,9.24,9.24,0,0,1-2-3.22,13.35,13.35,0,0,1-.77-4.82m3.46,0a11.62,11.62,0,0,0,.4,3.16,7,7,0,0,0,1.14,2.41,5,5,0,0,0,1.83,1.53,5.57,5.57,0,0,0,2.5.54,6.05,6.05,0,0,0,1.89-.28,6.61,6.61,0,0,0,1.53-.7,6.75,6.75,0,0,0,1.15-.91,6.11,6.11,0,0,0,.76-.89v-10.6a8.07,8.07,0,0,0-2.37-1.68,6.81,6.81,0,0,0-2.9-.63,6.12,6.12,0,0,0-2,.35,4.85,4.85,0,0,0-1.92,1.27,7,7,0,0,0-1.46,2.47,11.4,11.4,0,0,0-.58,4"/><path class="cls-1" d="M371.88,121.84a15.64,15.64,0,0,0,3-.27,17.48,17.48,0,0,0,2.7-.75v2.75a10.45,10.45,0,0,1-2.69.84,18.12,18.12,0,0,1-3.43.31,14.68,14.68,0,0,1-4.09-.55,8.09,8.09,0,0,1-5.49-5,13.14,13.14,0,0,1-.79-4.81,13.68,13.68,0,0,1,.76-4.81,10.08,10.08,0,0,1,2-3.4,8.42,8.42,0,0,1,2.94-2.05,9.16,9.16,0,0,1,3.47-.68,9,9,0,0,1,3.18.56,6.65,6.65,0,0,1,2.56,1.79,8.7,8.7,0,0,1,1.71,3.14,15,15,0,0,1,.63,4.61v.43c0,.12,0,.4,0,.83h-14A8.3,8.3,0,0,0,365,118a5.83,5.83,0,0,0,1.6,2.2,6.31,6.31,0,0,0,2.38,1.22,10.73,10.73,0,0,0,2.94.39m-1.74-15.61a5.11,5.11,0,0,0-2.13.44,5.41,5.41,0,0,0-1.72,1.22,6.1,6.1,0,0,0-1.18,1.8,7,7,0,0,0-.56,2.21h10.37a7.63,7.63,0,0,0-.32-2.23,5.55,5.55,0,0,0-.92-1.8,4.34,4.34,0,0,0-1.49-1.2,4.59,4.59,0,0,0-2.05-.43"/><rect class="cls-1" x="384.21" y="93.3" width="3.31" height="30.89"/><polygon class="cls-1" points="406.78 121.05 421.41 121.05 421.41 124.18 403.3 124.18 403.3 95.64 420.62 95.64 420.62 98.78 406.78 98.78 406.78 107.99 419.09 107.99 419.09 111.13 406.78 111.13 406.78 121.05"/><path class="cls-1" d="M435.66,103.38a12.58,12.58,0,0,1,2.82.31,8.27,8.27,0,0,1,2.31.86v2.75a18.47,18.47,0,0,0-2.48-.77,10.64,10.64,0,0,0-2.31-.25,7.76,7.76,0,0,0-2.45.41,5.69,5.69,0,0,0-2.18,1.34,6.66,6.66,0,0,0-1.55,2.45,10.64,10.64,0,0,0-.59,3.79,9.89,9.89,0,0,0,.44,3,6.67,6.67,0,0,0,1.3,2.4,5.9,5.9,0,0,0,2.17,1.57,7.46,7.46,0,0,0,3,.57,12.1,12.1,0,0,0,2.5-.27,14.25,14.25,0,0,0,2.45-.75v2.75a5.64,5.64,0,0,1-.95.42,10.19,10.19,0,0,1-1.29.38,14.68,14.68,0,0,1-1.49.25,12.6,12.6,0,0,1-1.58.1,12,12,0,0,1-3.87-.62,8.72,8.72,0,0,1-3.19-1.9,9,9,0,0,1-2.15-3.24,12.48,12.48,0,0,1-.79-4.65,14.41,14.41,0,0,1,.42-3.6,10.79,10.79,0,0,1,1.14-2.81,8.37,8.37,0,0,1,1.69-2.07,9.52,9.52,0,0,1,4.34-2.19,11.23,11.23,0,0,1,2.28-.25"/><path class="cls-1" d="M454.15,124.72a10.94,10.94,0,0,1-2.84-.34,7.84,7.84,0,0,1-2.21-1,6.28,6.28,0,0,1-1.61-1.48,7.1,7.1,0,0,1-1-1.89,7.44,7.44,0,0,1-.43-1.68,14.37,14.37,0,0,1-.13-2V103.92h3.31v12.41a7.61,7.61,0,0,0,.45,2.81,4.14,4.14,0,0,0,1.65,2,5.28,5.28,0,0,0,2.91.74,5.13,5.13,0,0,0,3-.81,4.44,4.44,0,0,0,1.63-2.18,7.92,7.92,0,0,0,.36-2.58V103.92h3.31v12.46a14,14,0,0,1-.12,1.9,8.23,8.23,0,0,1-.37,1.64,7.19,7.19,0,0,1-1.05,1.92,6.59,6.59,0,0,1-1.65,1.53,7.88,7.88,0,0,1-2.27,1,10.91,10.91,0,0,1-2.91.35"/><path class="cls-1" d="M480.58,121.95h-.09a6.19,6.19,0,0,1-1,1,7.09,7.09,0,0,1-1.43.9,8.57,8.57,0,0,1-3.82.87,8,8,0,0,1-2.7-.44,5.69,5.69,0,0,1-3.49-3.34,7.31,7.31,0,0,1-.49-2.75,6.52,6.52,0,0,1,.54-2.71,5.76,5.76,0,0,1,1.53-2,6.88,6.88,0,0,1,2.36-1.28,9.84,9.84,0,0,1,3-.45,17.21,17.21,0,0,1,2.92.28,15,15,0,0,1,2.39.64h.09v-1.41a9,9,0,0,0-.11-1.47,3.75,3.75,0,0,0-.36-1.13,4.29,4.29,0,0,0-1.77-1.69,6.8,6.8,0,0,0-3.28-.67,13.66,13.66,0,0,0-2.89.29,19,19,0,0,0-2.7.8v-2.77a8.24,8.24,0,0,1,1.21-.48,13.52,13.52,0,0,1,1.46-.38,16,16,0,0,1,1.62-.24c.57-.05,1.14-.09,1.71-.09a10.23,10.23,0,0,1,5,1.09,6.52,6.52,0,0,1,2.81,2.88,5.84,5.84,0,0,1,.46,1.51,11.08,11.08,0,0,1,.14,1.8v13.52h-2.77Zm-.17-6.66c-.61-.17-1.33-.33-2.17-.49a16.16,16.16,0,0,0-2.76-.25,5.36,5.36,0,0,0-3.29.89,3.22,3.22,0,0,0-1.19,2.75,4.17,4.17,0,0,0,.3,1.65,3.11,3.11,0,0,0,.82,1.16,3.3,3.3,0,0,0,1.23.68,4.9,4.9,0,0,0,1.52.23,6,6,0,0,0,2-.31,8.52,8.52,0,0,0,1.62-.73,8.87,8.87,0,0,0,1.21-.85c.33-.28.58-.5.73-.66Z"/><path class="cls-1" d="M488.94,114.3a15.23,15.23,0,0,1,.42-3.74,11.86,11.86,0,0,1,1.1-2.85,8,8,0,0,1,1.6-2,9.51,9.51,0,0,1,1.9-1.33,7.71,7.71,0,0,1,2-.74,8.67,8.67,0,0,1,1.91-.23,7.71,7.71,0,0,1,3.22.62,7.55,7.55,0,0,1,2.45,1.82h.06V93.3h3.31v30.88h-2.5l-.68-2.26h-.09a9.36,9.36,0,0,1-.9,1,5.76,5.76,0,0,1-1.2.91,6.66,6.66,0,0,1-1.6.65,8.16,8.16,0,0,1-2.1.24,9.82,9.82,0,0,1-3.26-.56,7.49,7.49,0,0,1-2.85-1.81,9.24,9.24,0,0,1-2-3.22,13.35,13.35,0,0,1-.77-4.82m3.46,0a11.62,11.62,0,0,0,.4,3.16,7,7,0,0,0,1.14,2.41,5,5,0,0,0,1.83,1.53,5.57,5.57,0,0,0,2.5.54,6.05,6.05,0,0,0,1.89-.28,6.61,6.61,0,0,0,1.53-.7,6.75,6.75,0,0,0,1.15-.91,6.41,6.41,0,0,0,.76-.89v-10.6a8.07,8.07,0,0,0-2.37-1.68,6.81,6.81,0,0,0-2.9-.63,6.12,6.12,0,0,0-2,.35,4.85,4.85,0,0,0-1.92,1.27,7,7,0,0,0-1.46,2.47,11.4,11.4,0,0,0-.58,4"/><path class="cls-1" d="M531.57,114.07a13.22,13.22,0,0,1-.68,4.35,9.79,9.79,0,0,1-1.93,3.36,8.61,8.61,0,0,1-3,2.17,9.88,9.88,0,0,1-4,.77,10.14,10.14,0,0,1-4-.77,8.5,8.5,0,0,1-3-2.17,9.45,9.45,0,0,1-1.91-3.36,13.48,13.48,0,0,1-.66-4.35,13.29,13.29,0,0,1,.68-4.37,9.92,9.92,0,0,1,1.93-3.37,8.4,8.4,0,0,1,3-2.18,9.9,9.9,0,0,1,4-.77,10.07,10.07,0,0,1,4,.77,8.3,8.3,0,0,1,3,2.18,9.85,9.85,0,0,1,1.9,3.37,13.69,13.69,0,0,1,.66,4.37m-3.46,0a11.12,11.12,0,0,0-.46-3.34,7.41,7.41,0,0,0-1.28-2.48,5.39,5.39,0,0,0-2-1.53,6.09,6.09,0,0,0-4.95,0,5.39,5.39,0,0,0-2,1.53,7.5,7.5,0,0,0-1.28,2.48,12.31,12.31,0,0,0,0,6.65,7.11,7.11,0,0,0,1.29,2.46,5.56,5.56,0,0,0,2,1.53,5.81,5.81,0,0,0,2.47.53,5.74,5.74,0,0,0,2.46-.53,5.49,5.49,0,0,0,1.94-1.53,7.25,7.25,0,0,0,1.28-2.46,11.08,11.08,0,0,0,.46-3.32"/><path class="cls-1" d="M547.91,106.61h-.26a12.23,12.23,0,0,0-2.3.21,9.73,9.73,0,0,0-2.12.65,8,8,0,0,0-1.79,1.07,5.91,5.91,0,0,0-1.34,1.52v14.11h-3.3V103.92h2.56l.64,3.22h.06a7.46,7.46,0,0,1,1.21-1.47,8.41,8.41,0,0,1,1.61-1.19,8.13,8.13,0,0,1,2-.8,8.42,8.42,0,0,1,2.24-.29h.43c.15,0,.28,0,.4,0Z"/><path class="cls-1" d="M55.87,38.65a62.33,62.33,0,0,1,18.25-8v32.5l3.14,3.14V30A63.1,63.1,0,0,1,83.52,29V78.85l6.27,6.27,6.27-6.27V29a62.89,62.89,0,0,1,6.27.95V66.31l3.14-3.14V30.67a62.34,62.34,0,0,1,18.25,8q1.9,1.22,3.7,2.57l4.47-4.47c-1.18-.91-2.4-1.79-3.64-2.63A68.59,68.59,0,0,0,96.4,22.75L89.79,9.89,83.18,22.75A68.55,68.55,0,0,0,51.34,34.13c-1.25.84-2.46,1.72-3.64,2.63l4.47,4.47q1.8-1.35,3.69-2.57"/><path class="cls-1" d="M29.07,107.06h32.5l3.13-3.13H28.36a62.62,62.62,0,0,1-.95-6.27H77.25l6.27-6.27-6.27-6.27H27.41a63.23,63.23,0,0,1,.95-6.27H64.71l-3.13-3.14H29.07a62.34,62.34,0,0,1,8-18.25c.82-1.26,1.67-2.5,2.57-3.7L35.16,49.3q-1.37,1.78-2.63,3.64A68.58,68.58,0,0,0,21.15,84.78L8.29,91.39,21.15,98a68.62,68.62,0,0,0,11.38,31.84q1.26,1.86,2.63,3.64L39.63,129q-1.35-1.8-2.57-3.69a62.37,62.37,0,0,1-8-18.25"/><path class="cls-1" d="M123.71,144.12a62.37,62.37,0,0,1-18.25,8V119.6l-3.14-3.14v36.36a62.76,62.76,0,0,1-6.27.95V103.93l-6.27-6.27-6.27,6.27v49.83a63.06,63.06,0,0,1-6.27-.95V116.46l-3.13,3.14v32.5a62.37,62.37,0,0,1-18.25-8c-1.26-.81-2.5-1.67-3.69-2.57L47.7,146q1.78,1.37,3.64,2.63A68.52,68.52,0,0,0,83.18,160l6.61,12.86L96.4,160a68.51,68.51,0,0,0,31.84-11.38q1.87-1.25,3.64-2.63l-4.47-4.47q-1.8,1.35-3.69,2.57"/><path class="cls-1" d="M171.29,91.39l-12.86-6.61A68.6,68.6,0,0,0,147,52.94c-.84-1.24-1.71-2.46-2.63-3.64l-4.47,4.47q1.35,1.8,2.57,3.7a62.35,62.35,0,0,1,8,18.25H118l-3.14,3.14h36.35a63.09,63.09,0,0,1,.95,6.27H102.33l-6.27,6.27,6.27,6.27h49.84a62.56,62.56,0,0,1-.95,6.27H114.86l3.14,3.13h32.5a62.38,62.38,0,0,1-8,18.25q-1.22,1.9-2.57,3.69l4.47,4.47c.91-1.18,1.79-2.4,2.63-3.64A68.62,68.62,0,0,0,158.43,98Z"/></svg>