<svg xmlns="http://www.w3.org/2000/svg" viewBox="0 0 193.61 34.15"><defs><style>.cls-1{fill:#fff;}</style></defs><title>Recurso 1</title><g id="Capa_2" data-name="Capa 2"><g id="Capa_1-2" data-name="Capa 1"><path class="cls-1" d="M37.33,25.57h-.72V19.69h1.63a4.8,4.8,0,0,1,.67,0,2.9,2.9,0,0,1,.57.14,1.63,1.63,0,0,1,.8.56,1.53,1.53,0,0,1,.27.92,1.68,1.68,0,0,1-.18.79,1.55,1.55,0,0,1-.52.57,2.5,2.5,0,0,1-.82.35,4.73,4.73,0,0,1-1.1.12l-.61,0Zm0-3.07.3,0h.3a4,4,0,0,0,.86-.08,1.67,1.67,0,0,0,.58-.23.9.9,0,0,0,.33-.37,1.16,1.16,0,0,0,.1-.49.92.92,0,0,0-.16-.56,1,1,0,0,0-.47-.33,1.87,1.87,0,0,0-.44-.1,5,5,0,0,0-.57,0h-.83Z"/><path class="cls-1" d="M45,23.48a2.71,2.71,0,0,1-.14.9,2,2,0,0,1-.4.69,1.76,1.76,0,0,1-.62.45,2,2,0,0,1-.82.16,2.08,2.08,0,0,1-.83-.16,1.75,1.75,0,0,1-.62-.45,2,2,0,0,1-.39-.69,2.79,2.79,0,0,1-.14-.9,2.73,2.73,0,0,1,.14-.9,2,2,0,0,1,.4-.69,1.74,1.74,0,0,1,.62-.45,2,2,0,0,1,.82-.16,2.09,2.09,0,0,1,.83.16,1.72,1.72,0,0,1,.62.45,2,2,0,0,1,.39.69A2.81,2.81,0,0,1,45,23.48Zm-.71,0a2.31,2.31,0,0,0-.09-.69,1.54,1.54,0,0,0-.26-.51,1.12,1.12,0,0,0-.4-.32,1.26,1.26,0,0,0-1,0,1.12,1.12,0,0,0-.4.32,1.53,1.53,0,0,0-.26.51,2.54,2.54,0,0,0,0,1.37,1.48,1.48,0,0,0,.27.51,1.14,1.14,0,0,0,.4.31,1.19,1.19,0,0,0,.51.11,1.18,1.18,0,0,0,.51-.11,1.13,1.13,0,0,0,.4-.31,1.52,1.52,0,0,0,.26-.51A2.3,2.3,0,0,0,44.27,23.48Z"/><path class="cls-1" d="M46.72,22h0A2.28,2.28,0,0,1,47,21.7a1.7,1.7,0,0,1,.31-.22,1.63,1.63,0,0,1,.38-.15,1.88,1.88,0,0,1,1,0,1.1,1.1,0,0,1,.44.25,1.22,1.22,0,0,1,.29.46,2,2,0,0,1,.11.7v2.79H48.8V22.88a1.17,1.17,0,0,0-.21-.78.77.77,0,0,0-.61-.24,1.32,1.32,0,0,0-.68.2,1.82,1.82,0,0,0-.57.54v3h-.68V21.39h.53Z"/><path class="cls-1" d="M53,25.58l-.27.07a2.9,2.9,0,0,1-.43,0,1.8,1.8,0,0,1-.57-.08,1.07,1.07,0,0,1-.4-.23,1,1,0,0,1-.24-.37,1.38,1.38,0,0,1-.08-.48V22h-.8v-.58H51V20.25h.68v1.14h1.25V22H51.7v2.43a.83.83,0,0,0,0,.27.54.54,0,0,0,.13.21.6.6,0,0,0,.23.14,1,1,0,0,0,.34.05l.29,0L53,25Z"/><path class="cls-1" d="M54,20.42v-.76h.68v.76Zm0,5.15V21.39h.68v4.17Z"/><path class="cls-1" d="M56.9,22v3.59h-.68V22h-.73v-.58h.73V20.9a2,2,0,0,1,.16-.84,1.57,1.57,0,0,1,.44-.56,1.71,1.71,0,0,1,.62-.31,2.64,2.64,0,0,1,.71-.1h.27l.28,0,.27,0,.22.06v.58l-.48-.1a3.21,3.21,0,0,0-.49,0,1.44,1.44,0,0,0-1,.3,1.18,1.18,0,0,0-.34.93v.47h2.58v4.17H58.8V22Z"/><path class="cls-1" d="M62.63,21.28a2.58,2.58,0,0,1,.58.06,1.71,1.71,0,0,1,.47.18v.57a3.81,3.81,0,0,0-.51-.16,2.14,2.14,0,0,0-.47-.05,1.59,1.59,0,0,0-.51.08,1.18,1.18,0,0,0-.45.27,1.38,1.38,0,0,0-.32.51,2.19,2.19,0,0,0-.12.78,2.05,2.05,0,0,0,.09.62,1.4,1.4,0,0,0,.27.49,1.21,1.21,0,0,0,.45.33,1.54,1.54,0,0,0,.62.12,2.47,2.47,0,0,0,.51-.05,2.92,2.92,0,0,0,.51-.16v.57l-.2.09-.27.08-.31.05-.33,0a2.47,2.47,0,0,1-.8-.13,1.79,1.79,0,0,1-.66-.39,1.84,1.84,0,0,1-.44-.67,2.56,2.56,0,0,1-.16-1,3,3,0,0,1,.09-.74,2.23,2.23,0,0,1,.24-.58,1.76,1.76,0,0,1,.35-.43,1.93,1.93,0,0,1,.43-.29,2,2,0,0,1,.47-.16A2.33,2.33,0,0,1,62.63,21.28Z"/><path class="cls-1" d="M64.81,20.42v-.76h.68v.76Zm0,5.15V21.39h.68v4.17Z"/><path class="cls-1" d="M69.32,25.11h0a1.33,1.33,0,0,1-.21.21,1.48,1.48,0,0,1-.29.18,1.78,1.78,0,0,1-.79.18,1.64,1.64,0,0,1-.56-.09,1.17,1.17,0,0,1-.72-.69,1.5,1.5,0,0,1-.1-.57,1.34,1.34,0,0,1,.11-.56,1.19,1.19,0,0,1,.31-.42,1.43,1.43,0,0,1,.49-.26,2,2,0,0,1,.63-.09,3.47,3.47,0,0,1,.6.06,3.13,3.13,0,0,1,.49.13h0V22.9a1.86,1.86,0,0,0,0-.3.78.78,0,0,0-.07-.23.88.88,0,0,0-.36-.35,1.4,1.4,0,0,0-.68-.14,2.82,2.82,0,0,0-.6.06,3.68,3.68,0,0,0-.56.16v-.57l.25-.1.3-.08.33-.05.35,0a2.11,2.11,0,0,1,1,.22,1.34,1.34,0,0,1,.58.59,1.2,1.2,0,0,1,.09.31,2.23,2.23,0,0,1,0,.37v2.79h-.57Zm0-1.37-.45-.1a3.35,3.35,0,0,0-.57-.05,1.1,1.1,0,0,0-.68.18.66.66,0,0,0-.25.57.87.87,0,0,0,.06.34.65.65,0,0,0,.17.24.68.68,0,0,0,.25.14,1,1,0,0,0,.31,0,1.25,1.25,0,0,0,.41-.06,1.69,1.69,0,0,0,.33-.15,1.84,1.84,0,0,0,.25-.18l.15-.14Z"/><path class="cls-1" d="M75.18,25a2,2,0,0,0,.57-.07,1.4,1.4,0,0,0,.43-.21,1.23,1.23,0,0,0,.31-.33,1.56,1.56,0,0,0,.19-.42,1.68,1.68,0,0,0,.06-.32c0-.12,0-.23,0-.34V19.69h.72v3.63q0,.21,0,.43a2.88,2.88,0,0,1-.07.42,2.23,2.23,0,0,1-.25.6,1.69,1.69,0,0,1-.44.48,2.05,2.05,0,0,1-.64.32,3.46,3.46,0,0,1-1.73,0,2,2,0,0,1-.63-.29,1.64,1.64,0,0,1-.43-.44,2.21,2.21,0,0,1-.26-.56,2.65,2.65,0,0,1-.09-.47,4.2,4.2,0,0,1,0-.49V19.69h.72v3.65a3,3,0,0,0,0,.41,1.87,1.87,0,0,0,.09.38,1.35,1.35,0,0,0,.51.67A1.64,1.64,0,0,0,75.18,25Z"/><path class="cls-1" d="M79.52,22h0a2.28,2.28,0,0,1,.25-.27,1.7,1.7,0,0,1,.31-.22,1.63,1.63,0,0,1,.38-.15,1.88,1.88,0,0,1,1,0,1.1,1.1,0,0,1,.44.25,1.22,1.22,0,0,1,.29.46,2,2,0,0,1,.11.7v2.79h-.68V22.88a1.17,1.17,0,0,0-.21-.78.77.77,0,0,0-.61-.24,1.32,1.32,0,0,0-.68.2,1.82,1.82,0,0,0-.57.54v3h-.68V21.39h.53Z"/><path class="cls-1" d="M83.63,20.42v-.76h.68v.76Zm0,5.15V21.39h.68v4.17Z"/><path class="cls-1" d="M87.1,24.88q.15-.46.41-1.16l.84-2.32H89l-1.58,4.17h-.71l-1.58-4.17h.68l.83,2.32q.25.69.41,1.16Z"/><path class="cls-1" d="M91.83,25.08a3.21,3.21,0,0,0,.62-.05,3.72,3.72,0,0,0,.56-.16v.57a2.23,2.23,0,0,1-.55.17,3.73,3.73,0,0,1-.71.06,3,3,0,0,1-.84-.11,1.74,1.74,0,0,1-.68-.37,1.72,1.72,0,0,1-.45-.67,2.7,2.7,0,0,1-.16-1,2.82,2.82,0,0,1,.16-1,2.1,2.1,0,0,1,.42-.7,1.71,1.71,0,0,1,.6-.42,1.86,1.86,0,0,1,.71-.14,1.82,1.82,0,0,1,.66.12,1.34,1.34,0,0,1,.53.37,1.79,1.79,0,0,1,.35.65,3.07,3.07,0,0,1,.13.95v.09s0,.08,0,.17H90.28a1.71,1.71,0,0,0,.12.68,1.18,1.18,0,0,0,.33.45,1.3,1.3,0,0,0,.49.25A2.23,2.23,0,0,0,91.83,25.08Zm-.36-3.22A1,1,0,0,0,91,22a1.14,1.14,0,0,0-.35.25,1.28,1.28,0,0,0-.24.37,1.45,1.45,0,0,0-.12.46h2.14a1.58,1.58,0,0,0-.06-.46,1.12,1.12,0,0,0-.19-.37A.89.89,0,0,0,91.9,22,1,1,0,0,0,91.47,21.87Z"/><path class="cls-1" d="M96.62,21.95h-.05a2.54,2.54,0,0,0-.47,0,2,2,0,0,0-.44.13,1.66,1.66,0,0,0-.37.22,1.18,1.18,0,0,0-.28.31v2.91h-.68V21.39h.53l.13.66h0a1.5,1.5,0,0,1,.25-.3,1.68,1.68,0,0,1,.33-.25,1.71,1.71,0,0,1,.4-.17,1.77,1.77,0,0,1,.46-.06h.17Z"/><path class="cls-1" d="M97.83,22.5a.5.5,0,0,0,.07.28.56.56,0,0,0,.2.18,1.28,1.28,0,0,0,.28.11l.33.08.45.12a1.33,1.33,0,0,1,.39.19.93.93,0,0,1,.29.35,1.41,1.41,0,0,1,0,1.13,1.15,1.15,0,0,1-.35.41,1.62,1.62,0,0,1-.54.25,2.6,2.6,0,0,1-.69.09l-.42,0-.33-.06-.24-.08-.17-.07v-.57a3.56,3.56,0,0,0,.51.17,2.39,2.39,0,0,0,.56.06,2,2,0,0,0,.44,0,1.12,1.12,0,0,0,.33-.13.61.61,0,0,0,.22-.22.58.58,0,0,0,.08-.3.55.55,0,0,0-.07-.29.58.58,0,0,0-.19-.19,1.14,1.14,0,0,0-.27-.12l-.32-.09-.45-.11a1.57,1.57,0,0,1-.41-.18.89.89,0,0,1-.3-.32,1.07,1.07,0,0,1-.11-.53,1.28,1.28,0,0,1,.12-.57,1.12,1.12,0,0,1,.32-.4,1.38,1.38,0,0,1,.47-.24,2,2,0,0,1,.57-.08,3,3,0,0,1,.64.07,3.2,3.2,0,0,1,.54.17v.58a4.08,4.08,0,0,0-.52-.17,2.5,2.5,0,0,0-.54-.07,1.47,1.47,0,0,0-.4,0A.79.79,0,0,0,98,22a.52.52,0,0,0-.16.2A.65.65,0,0,0,97.83,22.5Z"/><path class="cls-1" d="M101,20.42v-.76h.68v.76Zm0,5.15V21.39h.68v4.17Z"/><path class="cls-1" d="M102.83,23.53a3.16,3.16,0,0,1,.08-.77,2.43,2.43,0,0,1,.23-.59,1.63,1.63,0,0,1,.33-.42,1.94,1.94,0,0,1,.39-.27,1.64,1.64,0,0,1,.41-.15,1.79,1.79,0,0,1,.39,0,1.6,1.6,0,0,1,.66.13,1.55,1.55,0,0,1,.51.37h0V19.2h.68v6.36H106l-.14-.47h0l-.18.2a1.26,1.26,0,0,1-.25.19,1.37,1.37,0,0,1-.33.13,1.68,1.68,0,0,1-.43.05,2,2,0,0,1-.67-.12,1.54,1.54,0,0,1-.59-.37,1.89,1.89,0,0,1-.42-.66A2.74,2.74,0,0,1,102.83,23.53Zm.71,0a2.41,2.41,0,0,0,.08.65,1.46,1.46,0,0,0,.23.5,1,1,0,0,0,.38.31,1.15,1.15,0,0,0,.51.11,1.26,1.26,0,0,0,.39-.06,1.37,1.37,0,0,0,.31-.15,1.32,1.32,0,0,0,.24-.19,1.26,1.26,0,0,0,.16-.18V22.34a1.68,1.68,0,0,0-.49-.34,1.4,1.4,0,0,0-.6-.13,1.28,1.28,0,0,0-.41.07,1,1,0,0,0-.4.26,1.46,1.46,0,0,0-.3.51A2.37,2.37,0,0,0,103.54,23.52Z"/><path class="cls-1" d="M110.33,25.11h0a1.33,1.33,0,0,1-.21.21,1.51,1.51,0,0,1-.29.18,1.81,1.81,0,0,1-.37.13,1.77,1.77,0,0,1-.42,0,1.64,1.64,0,0,1-.56-.09,1.17,1.17,0,0,1-.72-.69,1.5,1.5,0,0,1-.1-.57,1.34,1.34,0,0,1,.11-.56,1.19,1.19,0,0,1,.31-.42,1.43,1.43,0,0,1,.49-.26,2,2,0,0,1,.63-.09,3.48,3.48,0,0,1,.6.06,3.13,3.13,0,0,1,.49.13h0V22.9a1.86,1.86,0,0,0,0-.3.78.78,0,0,0-.07-.23.88.88,0,0,0-.37-.35,1.39,1.39,0,0,0-.68-.14,2.83,2.83,0,0,0-.6.06,3.72,3.72,0,0,0-.56.16v-.57l.25-.1.3-.08.33-.05.35,0a2.11,2.11,0,0,1,1,.22,1.33,1.33,0,0,1,.58.59,1.14,1.14,0,0,1,.09.31,2.18,2.18,0,0,1,0,.37v2.79h-.57Zm0-1.37-.45-.1a3.35,3.35,0,0,0-.57-.05,1.11,1.11,0,0,0-.68.18.66.66,0,0,0-.25.57.86.86,0,0,0,.06.34.64.64,0,0,0,.17.24.67.67,0,0,0,.25.14,1,1,0,0,0,.31,0,1.24,1.24,0,0,0,.41-.06,1.68,1.68,0,0,0,.33-.15,1.83,1.83,0,0,0,.25-.18l.15-.14Z"/><path class="cls-1" d="M112.06,23.53a3.16,3.16,0,0,1,.08-.77,2.43,2.43,0,0,1,.23-.59,1.63,1.63,0,0,1,.33-.42,1.94,1.94,0,0,1,.39-.27,1.64,1.64,0,0,1,.41-.15,1.79,1.79,0,0,1,.39,0,1.6,1.6,0,0,1,.66.13,1.55,1.55,0,0,1,.51.37h0V19.2h.68v6.36h-.51l-.14-.47h0l-.18.2a1.26,1.26,0,0,1-.25.19,1.37,1.37,0,0,1-.33.13,1.68,1.68,0,0,1-.43.05,2,2,0,0,1-.67-.12,1.54,1.54,0,0,1-.59-.37,1.89,1.89,0,0,1-.42-.66A2.74,2.74,0,0,1,112.06,23.53Zm.71,0a2.41,2.41,0,0,0,.08.65,1.46,1.46,0,0,0,.23.5,1,1,0,0,0,.38.31,1.15,1.15,0,0,0,.51.11,1.26,1.26,0,0,0,.39-.06,1.37,1.37,0,0,0,.31-.15,1.32,1.32,0,0,0,.24-.19,1.26,1.26,0,0,0,.16-.18V22.34a1.68,1.68,0,0,0-.49-.34,1.4,1.4,0,0,0-.6-.13,1.28,1.28,0,0,0-.41.07,1,1,0,0,0-.4.26,1.46,1.46,0,0,0-.3.51A2.37,2.37,0,0,0,112.77,23.52Z"/><path class="cls-1" d="M121.5,20.21a2.68,2.68,0,0,0-.92.16,2,2,0,0,0-.75.47,2.18,2.18,0,0,0-.5.77,2.88,2.88,0,0,0-.18,1.07,3,3,0,0,0,.17,1.05,1.92,1.92,0,0,0,.48.74,2,2,0,0,0,.75.43,3.18,3.18,0,0,0,1,.14l.31,0,.33,0,.32-.07.28-.08v.63a3,3,0,0,1-.6.16,4.44,4.44,0,0,1-.7.06,3.81,3.81,0,0,1-1.3-.2,2.54,2.54,0,0,1-1-.59,2.48,2.48,0,0,1-.58-.93,3.71,3.71,0,0,1-.2-1.25,3.66,3.66,0,0,1,.21-1.26,2.79,2.79,0,0,1,.6-1,2.73,2.73,0,0,1,1-.64,3.27,3.27,0,0,1,1.26-.23l.37,0,.34,0,.31.07.24.08v.63a4.45,4.45,0,0,0-.58-.15A3.4,3.4,0,0,0,121.5,20.21Z"/><path class="cls-1" d="M126.31,25.11h0a1.33,1.33,0,0,1-.21.21,1.51,1.51,0,0,1-.29.18,1.81,1.81,0,0,1-.37.13,1.77,1.77,0,0,1-.42,0,1.64,1.64,0,0,1-.56-.09,1.17,1.17,0,0,1-.72-.69,1.5,1.5,0,0,1-.1-.57,1.34,1.34,0,0,1,.11-.56,1.19,1.19,0,0,1,.31-.42,1.43,1.43,0,0,1,.49-.26,2,2,0,0,1,.63-.09,3.48,3.48,0,0,1,.6.06,3.13,3.13,0,0,1,.49.13h0V22.9a1.86,1.86,0,0,0,0-.3.78.78,0,0,0-.07-.23.88.88,0,0,0-.37-.35,1.39,1.39,0,0,0-.68-.14,2.83,2.83,0,0,0-.6.06,3.72,3.72,0,0,0-.56.16v-.57l.25-.1.3-.08.33-.05.35,0a2.11,2.11,0,0,1,1,.22,1.33,1.33,0,0,1,.58.59,1.14,1.14,0,0,1,.09.31,2.18,2.18,0,0,1,0,.37v2.79h-.57Zm0-1.37-.45-.1a3.35,3.35,0,0,0-.57-.05,1.11,1.11,0,0,0-.68.18.66.66,0,0,0-.25.57.86.86,0,0,0,.06.34.64.64,0,0,0,.17.24.67.67,0,0,0,.25.14,1,1,0,0,0,.31,0,1.24,1.24,0,0,0,.41-.06,1.68,1.68,0,0,0,.33-.15,1.83,1.83,0,0,0,.25-.18l.15-.14Z"/><path class="cls-1" d="M130.48,25.58l-.27.07a2.9,2.9,0,0,1-.43,0,1.8,1.8,0,0,1-.57-.08,1.08,1.08,0,0,1-.4-.23,1,1,0,0,1-.24-.37,1.38,1.38,0,0,1-.08-.48V22h-.8v-.58h.8V20.25h.68v1.14h1.25V22h-1.25v2.43a.84.84,0,0,0,0,.27.55.55,0,0,0,.13.21.6.6,0,0,0,.23.14,1,1,0,0,0,.34.05l.29,0,.28-.06Z"/><path class="cls-1" d="M135.13,23.48a2.71,2.71,0,0,1-.14.9,2,2,0,0,1-.4.69,1.76,1.76,0,0,1-.62.45,2,2,0,0,1-.82.16,2.08,2.08,0,0,1-.83-.16,1.75,1.75,0,0,1-.62-.45,2,2,0,0,1-.39-.69,2.79,2.79,0,0,1-.14-.9,2.7,2.7,0,0,1,.14-.9,2,2,0,0,1,.4-.69,1.74,1.74,0,0,1,.62-.45,2,2,0,0,1,.82-.16,2.09,2.09,0,0,1,.83.16,1.72,1.72,0,0,1,.62.45,2,2,0,0,1,.39.69A2.81,2.81,0,0,1,135.13,23.48Zm-.71,0a2.31,2.31,0,0,0-.09-.69,1.54,1.54,0,0,0-.26-.51,1.12,1.12,0,0,0-.4-.32,1.26,1.26,0,0,0-1,0,1.12,1.12,0,0,0-.4.32,1.54,1.54,0,0,0-.26.51,2.53,2.53,0,0,0,0,1.37,1.47,1.47,0,0,0,.27.51,1.12,1.12,0,0,0,.4.31,1.25,1.25,0,0,0,1,0,1.13,1.13,0,0,0,.4-.31,1.52,1.52,0,0,0,.26-.51A2.3,2.3,0,0,0,134.41,23.48Zm-.24-4.39-.71,1.53h-.57l.54-1.53Z"/><path class="cls-1" d="M136.25,25.57V19.2h.68v6.36Z"/><path class="cls-1" d="M138.32,20.42v-.76H139v.76Zm0,5.15V21.39H139v4.17Z"/><path class="cls-1" d="M142.17,21.28a2.58,2.58,0,0,1,.58.06,1.71,1.71,0,0,1,.47.18v.57a3.81,3.81,0,0,0-.51-.16,2.14,2.14,0,0,0-.47-.05,1.58,1.58,0,0,0-.5.08,1.18,1.18,0,0,0-.45.27,1.4,1.4,0,0,0-.32.51,2.2,2.2,0,0,0-.12.78,2.05,2.05,0,0,0,.09.62,1.4,1.4,0,0,0,.27.49,1.21,1.21,0,0,0,.45.33,1.54,1.54,0,0,0,.62.12,2.48,2.48,0,0,0,.51-.05,2.92,2.92,0,0,0,.5-.16v.57l-.2.09-.27.08-.31.05-.33,0a2.47,2.47,0,0,1-.8-.13,1.79,1.79,0,0,1-.66-.39,1.84,1.84,0,0,1-.44-.67,2.56,2.56,0,0,1-.16-1,3,3,0,0,1,.08-.74,2.23,2.23,0,0,1,.24-.58,1.76,1.76,0,0,1,.35-.43,2,2,0,0,1,.89-.45A2.32,2.32,0,0,1,142.17,21.28Z"/><path class="cls-1" d="M146.77,25.11h0a1.33,1.33,0,0,1-.21.21,1.51,1.51,0,0,1-.29.18,1.81,1.81,0,0,1-.37.13,1.77,1.77,0,0,1-.42,0,1.64,1.64,0,0,1-.56-.09,1.17,1.17,0,0,1-.72-.69,1.5,1.5,0,0,1-.1-.57,1.34,1.34,0,0,1,.11-.56,1.19,1.19,0,0,1,.31-.42,1.43,1.43,0,0,1,.49-.26,2,2,0,0,1,.63-.09,3.48,3.48,0,0,1,.6.06,3.13,3.13,0,0,1,.49.13h0V22.9a1.86,1.86,0,0,0,0-.3.78.78,0,0,0-.07-.23.88.88,0,0,0-.37-.35,1.39,1.39,0,0,0-.68-.14,2.83,2.83,0,0,0-.6.06,3.72,3.72,0,0,0-.56.16v-.57l.25-.1.3-.08.33-.05.35,0a2.11,2.11,0,0,1,1,.22,1.33,1.33,0,0,1,.58.59,1.14,1.14,0,0,1,.09.31,2.18,2.18,0,0,1,0,.37v2.79h-.57Zm0-1.37-.45-.1a3.35,3.35,0,0,0-.57-.05,1.11,1.11,0,0,0-.68.18.66.66,0,0,0-.25.57.86.86,0,0,0,.06.34.64.64,0,0,0,.17.24.67.67,0,0,0,.25.14,1,1,0,0,0,.31,0A1.24,1.24,0,0,0,146,25a1.68,1.68,0,0,0,.33-.15,1.83,1.83,0,0,0,.25-.18l.15-.14Z"/><path class="cls-1" d="M150.29,23.53a3.16,3.16,0,0,1,.08-.77,2.43,2.43,0,0,1,.23-.59,1.63,1.63,0,0,1,.33-.42,1.94,1.94,0,0,1,.39-.27,1.64,1.64,0,0,1,.41-.15,1.79,1.79,0,0,1,.39,0,1.6,1.6,0,0,1,.66.13,1.55,1.55,0,0,1,.51.37h0V19.2H154v6.36h-.51l-.14-.47h0l-.18.2a1.26,1.26,0,0,1-.25.19,1.37,1.37,0,0,1-.33.13,1.68,1.68,0,0,1-.43.05,2,2,0,0,1-.67-.12,1.54,1.54,0,0,1-.59-.37,1.89,1.89,0,0,1-.42-.66A2.74,2.74,0,0,1,150.29,23.53Zm.71,0a2.41,2.41,0,0,0,.08.65,1.46,1.46,0,0,0,.23.5,1,1,0,0,0,.38.31,1.15,1.15,0,0,0,.51.11,1.26,1.26,0,0,0,.39-.06,1.37,1.37,0,0,0,.31-.15,1.32,1.32,0,0,0,.24-.19,1.26,1.26,0,0,0,.16-.18V22.34a1.68,1.68,0,0,0-.49-.34,1.4,1.4,0,0,0-.6-.13,1.28,1.28,0,0,0-.41.07,1,1,0,0,0-.4.26,1.46,1.46,0,0,0-.3.51A2.37,2.37,0,0,0,151,23.52Z"/><path class="cls-1" d="M157.34,25.08A3.22,3.22,0,0,0,158,25a3.72,3.72,0,0,0,.56-.16v.57a2.23,2.23,0,0,1-.55.17,3.73,3.73,0,0,1-.71.06,3,3,0,0,1-.84-.11,1.75,1.75,0,0,1-.68-.37,1.72,1.72,0,0,1-.45-.67,2.7,2.7,0,0,1-.16-1,2.81,2.81,0,0,1,.16-1,2.09,2.09,0,0,1,.42-.7,1.72,1.72,0,0,1,.6-.42,1.87,1.87,0,0,1,.71-.14,1.82,1.82,0,0,1,.66.12,1.34,1.34,0,0,1,.53.37,1.8,1.8,0,0,1,.35.65,3.08,3.08,0,0,1,.13.95v.09s0,.08,0,.17h-2.88a1.72,1.72,0,0,0,.12.68,1.19,1.19,0,0,0,.33.45,1.29,1.29,0,0,0,.49.25A2.22,2.22,0,0,0,157.34,25.08ZM157,21.87a1,1,0,0,0-.44.09,1.14,1.14,0,0,0-.35.25,1.27,1.27,0,0,0-.25.37,1.48,1.48,0,0,0-.12.46H158a1.58,1.58,0,0,0-.07-.46,1.12,1.12,0,0,0-.19-.37.89.89,0,0,0-.31-.25A.94.94,0,0,0,157,21.87Z"/><path class="cls-1" d="M159.88,25.57V19.2h.68v6.36Z"/><path class="cls-1" d="M164.53,24.92h3v.65h-3.73V19.69h3.57v.65h-2.85v1.9h2.54v.65h-2.54Z"/><path class="cls-1" d="M170.48,21.28a2.58,2.58,0,0,1,.58.06,1.71,1.71,0,0,1,.47.18v.57a3.81,3.81,0,0,0-.51-.16,2.14,2.14,0,0,0-.47-.05,1.58,1.58,0,0,0-.5.08,1.18,1.18,0,0,0-.45.27,1.4,1.4,0,0,0-.32.51,2.2,2.2,0,0,0-.12.78,2.05,2.05,0,0,0,.09.62,1.4,1.4,0,0,0,.27.49A1.21,1.21,0,0,0,170,25a1.54,1.54,0,0,0,.62.12,2.48,2.48,0,0,0,.51-.05,2.92,2.92,0,0,0,.5-.16v.57l-.2.09-.27.08-.31.05-.33,0a2.47,2.47,0,0,1-.8-.13,1.79,1.79,0,0,1-.66-.39,1.84,1.84,0,0,1-.44-.67,2.56,2.56,0,0,1-.16-1,3,3,0,0,1,.08-.74,2.23,2.23,0,0,1,.24-.58,1.76,1.76,0,0,1,.35-.43,2,2,0,0,1,.89-.45A2.32,2.32,0,0,1,170.48,21.28Z"/><path class="cls-1" d="M174.29,25.68a2.23,2.23,0,0,1-.58-.07,1.6,1.6,0,0,1-.46-.2,1.3,1.3,0,0,1-.33-.31,1.47,1.47,0,0,1-.22-.39,1.54,1.54,0,0,1-.09-.35,3,3,0,0,1,0-.41V21.39h.68V24a1.58,1.58,0,0,0,.09.58.86.86,0,0,0,.34.42,1.08,1.08,0,0,0,.6.15,1.05,1.05,0,0,0,.62-.17.92.92,0,0,0,.34-.45,1.64,1.64,0,0,0,.07-.53V21.39H176V24a2.92,2.92,0,0,1,0,.39,1.7,1.7,0,0,1-.08.34,1.53,1.53,0,0,1-.22.4,1.35,1.35,0,0,1-.34.31,1.63,1.63,0,0,1-.47.2A2.27,2.27,0,0,1,174.29,25.68Z"/><path class="cls-1" d="M179.73,25.11h0a1.33,1.33,0,0,1-.21.21,1.51,1.51,0,0,1-.29.18,1.81,1.81,0,0,1-.37.13,1.77,1.77,0,0,1-.42,0,1.64,1.64,0,0,1-.56-.09,1.17,1.17,0,0,1-.72-.69,1.5,1.5,0,0,1-.1-.57,1.34,1.34,0,0,1,.11-.56,1.19,1.19,0,0,1,.31-.42,1.43,1.43,0,0,1,.49-.26,2,2,0,0,1,.63-.09,3.48,3.48,0,0,1,.6.06,3.13,3.13,0,0,1,.49.13h0V22.9a1.86,1.86,0,0,0,0-.3.78.78,0,0,0-.07-.23.88.88,0,0,0-.37-.35,1.39,1.39,0,0,0-.68-.14,2.83,2.83,0,0,0-.6.06,3.72,3.72,0,0,0-.56.16v-.57l.25-.1.3-.08.33-.05.35,0a2.11,2.11,0,0,1,1,.22,1.33,1.33,0,0,1,.58.59,1.14,1.14,0,0,1,.09.31,2.18,2.18,0,0,1,0,.37v2.79h-.57Zm0-1.37-.45-.1a3.35,3.35,0,0,0-.57-.05,1.11,1.11,0,0,0-.68.18.66.66,0,0,0-.25.57.86.86,0,0,0,.06.34.64.64,0,0,0,.17.24.67.67,0,0,0,.25.14,1,1,0,0,0,.31,0A1.24,1.24,0,0,0,179,25a1.68,1.68,0,0,0,.33-.15,1.83,1.83,0,0,0,.25-.18l.15-.14Z"/><path class="cls-1" d="M181.46,23.53a3.16,3.16,0,0,1,.08-.77,2.43,2.43,0,0,1,.23-.59,1.63,1.63,0,0,1,.33-.42,1.94,1.94,0,0,1,.39-.27,1.64,1.64,0,0,1,.41-.15,1.79,1.79,0,0,1,.39,0,1.6,1.6,0,0,1,.66.13,1.55,1.55,0,0,1,.51.37h0V19.2h.68v6.36h-.51l-.14-.47h0l-.18.2a1.26,1.26,0,0,1-.25.19,1.37,1.37,0,0,1-.33.13,1.68,1.68,0,0,1-.43.05,2,2,0,0,1-.67-.12,1.54,1.54,0,0,1-.59-.37,1.89,1.89,0,0,1-.42-.66A2.74,2.74,0,0,1,181.46,23.53Zm.71,0a2.41,2.41,0,0,0,.08.65,1.46,1.46,0,0,0,.23.5,1,1,0,0,0,.38.31,1.15,1.15,0,0,0,.51.11,1.26,1.26,0,0,0,.39-.06,1.37,1.37,0,0,0,.31-.15,1.32,1.32,0,0,0,.24-.19,1.26,1.26,0,0,0,.16-.18V22.34A1.68,1.68,0,0,0,184,22a1.4,1.4,0,0,0-.6-.13,1.28,1.28,0,0,0-.41.07,1,1,0,0,0-.4.26,1.46,1.46,0,0,0-.3.51A2.37,2.37,0,0,0,182.17,23.52Z"/><path class="cls-1" d="M190.24,23.48a2.71,2.71,0,0,1-.14.9,2,2,0,0,1-.4.69,1.76,1.76,0,0,1-.62.45,2,2,0,0,1-.82.16,2.08,2.08,0,0,1-.83-.16,1.75,1.75,0,0,1-.62-.45,2,2,0,0,1-.39-.69,2.79,2.79,0,0,1-.14-.9,2.7,2.7,0,0,1,.14-.9,2,2,0,0,1,.4-.69,1.74,1.74,0,0,1,.62-.45,2,2,0,0,1,.82-.16,2.09,2.09,0,0,1,.83.16,1.72,1.72,0,0,1,.62.45,2,2,0,0,1,.39.69A2.81,2.81,0,0,1,190.24,23.48Zm-.71,0a2.31,2.31,0,0,0-.09-.69,1.54,1.54,0,0,0-.26-.51,1.12,1.12,0,0,0-.4-.32,1.26,1.26,0,0,0-1,0,1.12,1.12,0,0,0-.4.32,1.54,1.54,0,0,0-.26.51,2.53,2.53,0,0,0,0,1.37,1.47,1.47,0,0,0,.27.51,1.12,1.12,0,0,0,.4.31,1.25,1.25,0,0,0,1,0,1.13,1.13,0,0,0,.4-.31,1.52,1.52,0,0,0,.26-.51A2.3,2.3,0,0,0,189.53,23.48Z"/><path class="cls-1" d="M193.61,21.95h-.05a2.54,2.54,0,0,0-.47,0,2,2,0,0,0-.44.13,1.66,1.66,0,0,0-.37.22,1.18,1.18,0,0,0-.28.31v2.91h-.68V21.39h.53l.13.66h0a1.5,1.5,0,0,1,.25-.3,1.68,1.68,0,0,1,.33-.25,1.71,1.71,0,0,1,.4-.17,1.77,1.77,0,0,1,.46-.06h.17Z"/><path class="cls-1" d="M40.4,13.05a2.22,2.22,0,0,1,.65.19,1.7,1.7,0,0,1,.5.36,1.51,1.51,0,0,1,.32.52,2,2,0,0,1,.11.69,2.24,2.24,0,0,1-.08.58,2,2,0,0,1-.27.59,2.28,2.28,0,0,1-.49.52,2.5,2.5,0,0,1-.76.39,3.69,3.69,0,0,1-.77.16,9.39,9.39,0,0,1-1,0h-2V9.27H39l.4,0,.34,0,.3.06a2.77,2.77,0,0,1,.66.27,2,2,0,0,1,.51.41,1.76,1.76,0,0,1,.32.54,1.89,1.89,0,0,1,.11.66,2.22,2.22,0,0,1-.07.55,1.56,1.56,0,0,1-.22.49,1.62,1.62,0,0,1-.39.4,2.13,2.13,0,0,1-.58.29ZM39,12.66a3.88,3.88,0,0,0,.49,0,2.07,2.07,0,0,0,.37-.08,1.17,1.17,0,0,0,.64-.46,1.31,1.31,0,0,0,.2-.73,1.13,1.13,0,0,0-.21-.71,1.26,1.26,0,0,0-.66-.41,2.75,2.75,0,0,0-.52-.09q-.29,0-.69,0H37.55v2.53Zm-1.45.86v2.72H38.7a7.09,7.09,0,0,0,.76,0,2.9,2.9,0,0,0,.6-.12,1.61,1.61,0,0,0,.46-.23,1.27,1.27,0,0,0,.3-.3A1.15,1.15,0,0,0,41,15.2a1.48,1.48,0,0,0,0-.38A1.61,1.61,0,0,0,41,14.4a1,1,0,0,0-.17-.35,1.12,1.12,0,0,0-.32-.27A1.64,1.64,0,0,0,40,13.6a2.7,2.7,0,0,0-.4-.06l-.56,0Z"/><path class="cls-1" d="M48.56,14.33a3.62,3.62,0,0,1-.19,1.2,2.7,2.7,0,0,1-.53.92A2.35,2.35,0,0,1,47,17a2.71,2.71,0,0,1-1.09.21A2.78,2.78,0,0,1,44.81,17a2.34,2.34,0,0,1-.83-.59,2.62,2.62,0,0,1-.52-.92,3.73,3.73,0,0,1-.18-1.2,3.64,3.64,0,0,1,.19-1.2A2.73,2.73,0,0,1,44,12.2a2.33,2.33,0,0,1,.83-.6,2.73,2.73,0,0,1,1.09-.21A2.79,2.79,0,0,1,47,11.6a2.29,2.29,0,0,1,.83.6,2.68,2.68,0,0,1,.52.93A3.75,3.75,0,0,1,48.56,14.33Zm-.95,0a3.06,3.06,0,0,0-.13-.92,2,2,0,0,0-.35-.68,1.49,1.49,0,0,0-.54-.42,1.68,1.68,0,0,0-1.36,0,1.49,1.49,0,0,0-.54.42,2,2,0,0,0-.35.68,3.38,3.38,0,0,0,0,1.83,2,2,0,0,0,.35.68,1.53,1.53,0,0,0,.54.42,1.6,1.6,0,0,0,.68.14,1.58,1.58,0,0,0,.68-.14,1.51,1.51,0,0,0,.53-.42,2,2,0,0,0,.35-.68A3,3,0,0,0,47.61,14.33Z"/><path class="cls-1" d="M50.05,17.11V8.62H51v8.48Z"/><path class="cls-1" d="M53.43,13a.66.66,0,0,0,.1.38.74.74,0,0,0,.26.24,1.69,1.69,0,0,0,.38.15l.44.11.6.16a1.77,1.77,0,0,1,.52.25,1.24,1.24,0,0,1,.38.46,1.68,1.68,0,0,1,.15.75,1.64,1.64,0,0,1-.16.75,1.52,1.52,0,0,1-.46.54,2.16,2.16,0,0,1-.71.33,3.45,3.45,0,0,1-.91.11,4.34,4.34,0,0,1-.55,0L53,17.14l-.33-.1-.22-.1v-.76a4.79,4.79,0,0,0,.68.22,3.18,3.18,0,0,0,.75.08,2.64,2.64,0,0,0,.58-.06,1.48,1.48,0,0,0,.45-.17A.82.82,0,0,0,55.2,16a.79.79,0,0,0,.1-.4.74.74,0,0,0-.09-.39.77.77,0,0,0-.25-.25,1.5,1.5,0,0,0-.36-.16l-.43-.12-.6-.15a2.1,2.1,0,0,1-.55-.25,1.19,1.19,0,0,1-.4-.43,1.42,1.42,0,0,1-.15-.7,1.71,1.71,0,0,1,.16-.76,1.51,1.51,0,0,1,.43-.53,1.86,1.86,0,0,1,.63-.32,2.66,2.66,0,0,1,.76-.11,4,4,0,0,1,.86.09,4.25,4.25,0,0,1,.72.22v.77a5.3,5.3,0,0,0-.69-.22,3.29,3.29,0,0,0-.72-.09,2,2,0,0,0-.54.06,1,1,0,0,0-.37.18.68.68,0,0,0-.21.27A.87.87,0,0,0,53.43,13Z"/><path class="cls-1" d="M60.89,16.49h0a1.81,1.81,0,0,1-.28.28,2,2,0,0,1-.39.25,2.42,2.42,0,0,1-.49.17,2.36,2.36,0,0,1-.56.06,2.19,2.19,0,0,1-.74-.12,1.62,1.62,0,0,1-.58-.35,1.59,1.59,0,0,1-.38-.57,2,2,0,0,1-.13-.76,1.78,1.78,0,0,1,.15-.74,1.58,1.58,0,0,1,.42-.56,1.9,1.9,0,0,1,.65-.35,2.69,2.69,0,0,1,.83-.12,4.63,4.63,0,0,1,.8.08,4.18,4.18,0,0,1,.66.18h0v-.39a2.48,2.48,0,0,0,0-.4,1,1,0,0,0-.1-.31,1.18,1.18,0,0,0-.49-.47,1.87,1.87,0,0,0-.9-.18,3.81,3.81,0,0,0-.79.08,5,5,0,0,0-.74.22v-.76l.33-.13.4-.11.45-.07.47,0a2.82,2.82,0,0,1,1.38.3,1.78,1.78,0,0,1,.77.79,1.59,1.59,0,0,1,.13.41,3,3,0,0,1,0,.5v3.71H61Zm0-1.83-.6-.13a4.47,4.47,0,0,0-.76-.07,1.47,1.47,0,0,0-.9.25.89.89,0,0,0-.33.76,1.16,1.16,0,0,0,.08.45.87.87,0,0,0,.22.32.92.92,0,0,0,.34.19,1.38,1.38,0,0,0,.42.06,1.68,1.68,0,0,0,.54-.08,2.31,2.31,0,0,0,.45-.2,2.45,2.45,0,0,0,.33-.23l.2-.18Z"/><path class="cls-1" d="M65.59,14.39a4.18,4.18,0,0,1,.11-1,3.22,3.22,0,0,1,.3-.78,2.16,2.16,0,0,1,.44-.56,2.56,2.56,0,0,1,.52-.37,2.22,2.22,0,0,1,.55-.2,2.43,2.43,0,0,1,.52-.06,2.13,2.13,0,0,1,.88.17,2.06,2.06,0,0,1,.67.5h0V8.62h.91v8.48h-.69l-.19-.62h0a2.79,2.79,0,0,1-.25.27A1.69,1.69,0,0,1,69,17a1.8,1.8,0,0,1-.44.18,2.22,2.22,0,0,1-.58.07,2.67,2.67,0,0,1-.9-.16,2.07,2.07,0,0,1-.78-.5,2.53,2.53,0,0,1-.55-.88A3.65,3.65,0,0,1,65.59,14.39Zm.95,0a3.24,3.24,0,0,0,.11.87,2,2,0,0,0,.31.66,1.39,1.39,0,0,0,.5.42,1.54,1.54,0,0,0,.69.15,1.68,1.68,0,0,0,.52-.08A1.85,1.85,0,0,0,69.4,16a1.76,1.76,0,0,0,.21-.24V12.8a2.22,2.22,0,0,0-.65-.46,1.86,1.86,0,0,0-.8-.17,1.68,1.68,0,0,0-.54.1,1.33,1.33,0,0,0-.53.35,1.93,1.93,0,0,0-.4.68A3.16,3.16,0,0,0,66.53,14.38Z"/><path class="cls-1" d="M75,16.46a4.27,4.27,0,0,0,.82-.07,4.94,4.94,0,0,0,.74-.21v.76a3,3,0,0,1-.74.23,5,5,0,0,1-.94.08,4,4,0,0,1-1.12-.15,2.32,2.32,0,0,1-.91-.49,2.28,2.28,0,0,1-.6-.89A3.58,3.58,0,0,1,72,14.4a3.75,3.75,0,0,1,.21-1.32,2.78,2.78,0,0,1,.56-.93,2.28,2.28,0,0,1,.81-.56,2.48,2.48,0,0,1,1-.19,2.43,2.43,0,0,1,.87.16,1.79,1.79,0,0,1,.7.49,2.4,2.4,0,0,1,.47.86,4.1,4.1,0,0,1,.17,1.27v.12s0,.11,0,.23H72.92a2.27,2.27,0,0,0,.16.91,1.59,1.59,0,0,0,.44.6,1.75,1.75,0,0,0,.65.34A3,3,0,0,0,75,16.46Zm-.48-4.29a1.39,1.39,0,0,0-.58.12,1.51,1.51,0,0,0-.47.33,1.69,1.69,0,0,0-.33.5,1.94,1.94,0,0,0-.15.61h2.85a2.11,2.11,0,0,0-.09-.61,1.49,1.49,0,0,0-.25-.5,1.18,1.18,0,0,0-.41-.33A1.26,1.26,0,0,0,74.5,12.17Z"/><path class="cls-1" d="M81.78,16.24h4v.86h-5V9.27h4.76v.86h-3.8v2.53h3.38v.86H81.78Z"/><path class="cls-1" d="M91.87,17.11H91V13.53a2.1,2.1,0,0,0-.08-.62,1.09,1.09,0,0,0-.23-.42.89.89,0,0,0-.36-.24,1.35,1.35,0,0,0-.47-.08,1.58,1.58,0,0,0-.88.26,2.63,2.63,0,0,0-.71.72v4h-.91V11.54H88l.18.77h0a3.22,3.22,0,0,1,.33-.36,2.14,2.14,0,0,1,.4-.29,2,2,0,0,1,.48-.2,2.22,2.22,0,0,1,.57-.07,1.71,1.71,0,0,1,1,.3,1.93,1.93,0,0,1,.63.81h0a3,3,0,0,1,.85-.82,2.05,2.05,0,0,1,1.11-.3,2.57,2.57,0,0,1,.62.08,1.57,1.57,0,0,1,.6.3,1.66,1.66,0,0,1,.46.61,2.35,2.35,0,0,1,.18,1v3.73h-.91V13.53a2.1,2.1,0,0,0-.08-.62,1.09,1.09,0,0,0-.23-.42.89.89,0,0,0-.36-.24,1.35,1.35,0,0,0-.47-.08,1.6,1.6,0,0,0-.89.26,2.61,2.61,0,0,0-.72.72Z"/><path class="cls-1" d="M102.2,14.26a4.13,4.13,0,0,1-.12,1,3.18,3.18,0,0,1-.3.78,2.15,2.15,0,0,1-.44.56,2.48,2.48,0,0,1-.52.36,2.31,2.31,0,0,1-.55.2,2.45,2.45,0,0,1-.53.06,2.18,2.18,0,0,1-.89-.17,2,2,0,0,1-.68-.5h0v3.24h-.89V11.54H98l.19.63h0a1.22,1.22,0,0,1,.2-.23,2.16,2.16,0,0,1,.32-.24,2.26,2.26,0,0,1,.49-.22,2,2,0,0,1,.62-.09,2.64,2.64,0,0,1,.91.16,2,2,0,0,1,.77.5,2.53,2.53,0,0,1,.54.89A3.78,3.78,0,0,1,102.2,14.26Zm-.95,0a3.37,3.37,0,0,0-.1-.87,1.89,1.89,0,0,0-.31-.66,1.4,1.4,0,0,0-.51-.42,1.57,1.57,0,0,0-.7-.15,1.65,1.65,0,0,0-.52.08,1.94,1.94,0,0,0-.42.19,1.83,1.83,0,0,0-.32.25l-.22.24v2.91a2.22,2.22,0,0,0,.66.46,1.87,1.87,0,0,0,.79.17,1.74,1.74,0,0,0,.55-.1,1.35,1.35,0,0,0,.53-.35,1.9,1.9,0,0,0,.4-.68A3.16,3.16,0,0,0,101.25,14.27Z"/><path class="cls-1" d="M103.69,17.11V8.62h.91v8.48Z"/><path class="cls-1" d="M109.06,16.46a4.27,4.27,0,0,0,.82-.07,4.94,4.94,0,0,0,.74-.21v.76a3,3,0,0,1-.74.23,5,5,0,0,1-.94.08,4,4,0,0,1-1.12-.15,2.33,2.33,0,0,1-.91-.49,2.29,2.29,0,0,1-.6-.89,3.59,3.59,0,0,1-.22-1.32,3.77,3.77,0,0,1,.21-1.32,2.8,2.8,0,0,1,.56-.93,2.28,2.28,0,0,1,.81-.56,2.48,2.48,0,0,1,1-.19,2.42,2.42,0,0,1,.87.16,1.79,1.79,0,0,1,.71.49,2.39,2.39,0,0,1,.47.86,4.09,4.09,0,0,1,.17,1.27v.12s0,.11,0,.23H107a2.27,2.27,0,0,0,.16.91,1.59,1.59,0,0,0,.44.6,1.75,1.75,0,0,0,.65.34A3,3,0,0,0,109.06,16.46Zm-.48-4.29a1.39,1.39,0,0,0-.58.12,1.52,1.52,0,0,0-.47.33,1.68,1.68,0,0,0-.33.5,1.94,1.94,0,0,0-.15.61h2.85a2.09,2.09,0,0,0-.09-.61,1.5,1.5,0,0,0-.25-.5,1.18,1.18,0,0,0-.41-.33A1.26,1.26,0,0,0,108.58,12.17Z"/><path class="cls-1" d="M117.35,14.33a3.62,3.62,0,0,1-.19,1.2,2.7,2.7,0,0,1-.53.92,2.35,2.35,0,0,1-.83.59,2.71,2.71,0,0,1-1.09.21,2.78,2.78,0,0,1-1.11-.21,2.34,2.34,0,0,1-.83-.59,2.62,2.62,0,0,1-.52-.92,3.73,3.73,0,0,1-.18-1.2,3.64,3.64,0,0,1,.19-1.2,2.73,2.73,0,0,1,.53-.93,2.33,2.33,0,0,1,.83-.6,2.73,2.73,0,0,1,1.09-.21,2.79,2.79,0,0,1,1.11.21,2.29,2.29,0,0,1,.83.6,2.68,2.68,0,0,1,.52.93A3.75,3.75,0,0,1,117.35,14.33Zm-.95,0a3.06,3.06,0,0,0-.13-.92,2,2,0,0,0-.35-.68,1.49,1.49,0,0,0-.54-.42,1.68,1.68,0,0,0-1.36,0,1.49,1.49,0,0,0-.54.42,2,2,0,0,0-.35.68,3.38,3.38,0,0,0,0,1.83,2,2,0,0,0,.35.68,1.53,1.53,0,0,0,.54.42,1.6,1.6,0,0,0,.68.14,1.58,1.58,0,0,0,.68-.14,1.51,1.51,0,0,0,.53-.42,2,2,0,0,0,.35-.68A3,3,0,0,0,116.4,14.33Z"/><path class="cls-1" d="M119.44,13a.66.66,0,0,0,.1.38.73.73,0,0,0,.26.24,1.68,1.68,0,0,0,.38.15l.44.11.6.16a1.76,1.76,0,0,1,.52.25,1.22,1.22,0,0,1,.38.46,1.67,1.67,0,0,1,.15.75,1.64,1.64,0,0,1-.16.75,1.52,1.52,0,0,1-.46.54,2.16,2.16,0,0,1-.71.33,3.45,3.45,0,0,1-.91.11,4.34,4.34,0,0,1-.55,0l-.44-.08-.33-.1-.22-.1v-.76a4.81,4.81,0,0,0,.68.22,3.19,3.19,0,0,0,.75.08,2.64,2.64,0,0,0,.58-.06,1.47,1.47,0,0,0,.45-.17.82.82,0,0,0,.29-.29.78.78,0,0,0,.1-.4.74.74,0,0,0-.09-.39.77.77,0,0,0-.25-.25,1.49,1.49,0,0,0-.36-.16l-.43-.12-.6-.15a2.11,2.11,0,0,1-.55-.25,1.2,1.2,0,0,1-.4-.43,1.42,1.42,0,0,1-.15-.7,1.71,1.71,0,0,1,.16-.76,1.51,1.51,0,0,1,.43-.53,1.86,1.86,0,0,1,.63-.32,2.66,2.66,0,0,1,.76-.11,4,4,0,0,1,.86.09,4.25,4.25,0,0,1,.72.22v.77a5.3,5.3,0,0,0-.69-.22,3.29,3.29,0,0,0-.72-.09,2,2,0,0,0-.54.06,1,1,0,0,0-.37.18.68.68,0,0,0-.21.27A.87.87,0,0,0,119.44,13Z"/><path class="cls-1" d="M125.34,11.54h.91L128,15.9h0l1.77-4.37h.91l-3.45,8.29h-.9L127.53,17Z"/><path class="cls-1" d="M135.27,17.11h-1V9.27h2.17a6.42,6.42,0,0,1,.9.06,3.9,3.9,0,0,1,.76.18,2.17,2.17,0,0,1,1.06.75,2,2,0,0,1,.36,1.23,2.24,2.24,0,0,1-.24,1.05,2.06,2.06,0,0,1-.69.76,3.33,3.33,0,0,1-1.1.46,6.3,6.3,0,0,1-1.47.16c-.26,0-.53,0-.81,0Zm0-4.1.4,0h.4a5.38,5.38,0,0,0,1.15-.11,2.24,2.24,0,0,0,.77-.31,1.21,1.21,0,0,0,.43-.49,1.55,1.55,0,0,0,.13-.66,1.22,1.22,0,0,0-.22-.75,1.35,1.35,0,0,0-.62-.45,2.49,2.49,0,0,0-.58-.13,6.69,6.69,0,0,0-.76,0h-1.11Z"/><path class="cls-1" d="M144.3,16.49h0a1.81,1.81,0,0,1-.28.28,2,2,0,0,1-.39.25,2.42,2.42,0,0,1-.49.17,2.36,2.36,0,0,1-.56.06,2.19,2.19,0,0,1-.74-.12,1.62,1.62,0,0,1-.58-.35,1.59,1.59,0,0,1-.38-.57,2,2,0,0,1-.13-.76,1.78,1.78,0,0,1,.15-.74,1.58,1.58,0,0,1,.42-.56,1.9,1.9,0,0,1,.65-.35,2.69,2.69,0,0,1,.83-.12,4.63,4.63,0,0,1,.8.08,4.18,4.18,0,0,1,.66.18h0v-.39a2.48,2.48,0,0,0,0-.4,1,1,0,0,0-.1-.31,1.18,1.18,0,0,0-.49-.47,1.87,1.87,0,0,0-.9-.18,3.81,3.81,0,0,0-.79.08,5,5,0,0,0-.74.22v-.76l.33-.13.4-.11.45-.07.47,0a2.82,2.82,0,0,1,1.38.3,1.78,1.78,0,0,1,.77.79,1.59,1.59,0,0,1,.13.41,3,3,0,0,1,0,.5v3.71h-.76Zm0-1.83-.59-.13a4.48,4.48,0,0,0-.76-.07,1.47,1.47,0,0,0-.9.25.89.89,0,0,0-.33.76,1.15,1.15,0,0,0,.08.45.85.85,0,0,0,.22.32.92.92,0,0,0,.34.19,1.38,1.38,0,0,0,.42.06,1.68,1.68,0,0,0,.54-.08,2.27,2.27,0,0,0,.45-.2,2.45,2.45,0,0,0,.33-.23l.2-.18Z"/><path class="cls-1" d="M147.57,13a.66.66,0,0,0,.1.38.73.73,0,0,0,.26.24,1.68,1.68,0,0,0,.38.15l.44.11.6.16a1.76,1.76,0,0,1,.52.25,1.22,1.22,0,0,1,.38.46,1.67,1.67,0,0,1,.15.75,1.64,1.64,0,0,1-.16.75,1.52,1.52,0,0,1-.46.54,2.16,2.16,0,0,1-.71.33,3.45,3.45,0,0,1-.91.11,4.34,4.34,0,0,1-.55,0l-.44-.08-.33-.1-.22-.1v-.76a4.81,4.81,0,0,0,.68.22,3.19,3.19,0,0,0,.75.08,2.64,2.64,0,0,0,.58-.06,1.47,1.47,0,0,0,.45-.17.82.82,0,0,0,.29-.29.78.78,0,0,0,.1-.4.74.74,0,0,0-.09-.39.77.77,0,0,0-.25-.25,1.49,1.49,0,0,0-.36-.16l-.43-.12-.6-.15a2.11,2.11,0,0,1-.55-.25,1.2,1.2,0,0,1-.4-.43,1.42,1.42,0,0,1-.15-.7,1.71,1.71,0,0,1,.16-.76,1.51,1.51,0,0,1,.43-.53,1.86,1.86,0,0,1,.63-.32,2.66,2.66,0,0,1,.76-.11,4,4,0,0,1,.86.09,4.25,4.25,0,0,1,.72.22v.77a5.3,5.3,0,0,0-.69-.22,3.29,3.29,0,0,0-.72-.09,2,2,0,0,0-.54.06,1,1,0,0,0-.37.18.68.68,0,0,0-.21.27A.87.87,0,0,0,147.57,13Z"/><path class="cls-1" d="M155,16.49h0a1.81,1.81,0,0,1-.28.28,2,2,0,0,1-.39.25,2.42,2.42,0,0,1-.49.17,2.36,2.36,0,0,1-.56.06,2.19,2.19,0,0,1-.74-.12,1.62,1.62,0,0,1-.58-.35,1.59,1.59,0,0,1-.38-.57,2,2,0,0,1-.13-.76,1.78,1.78,0,0,1,.15-.74,1.58,1.58,0,0,1,.42-.56,1.9,1.9,0,0,1,.65-.35,2.69,2.69,0,0,1,.83-.12,4.63,4.63,0,0,1,.8.08,4.18,4.18,0,0,1,.66.18h0v-.39a2.48,2.48,0,0,0,0-.4,1,1,0,0,0-.1-.31,1.18,1.18,0,0,0-.49-.47,1.87,1.87,0,0,0-.9-.18,3.81,3.81,0,0,0-.79.08,5,5,0,0,0-.74.22v-.76l.33-.13.4-.11.45-.07.47,0a2.82,2.82,0,0,1,1.38.3,1.78,1.78,0,0,1,.77.79,1.59,1.59,0,0,1,.13.41,3,3,0,0,1,0,.5v3.71h-.76Zm0-1.83-.59-.13a4.48,4.48,0,0,0-.76-.07,1.47,1.47,0,0,0-.9.25.89.89,0,0,0-.33.76,1.15,1.15,0,0,0,.08.45.85.85,0,0,0,.22.32.92.92,0,0,0,.34.19,1.38,1.38,0,0,0,.42.06,1.68,1.68,0,0,0,.54-.08,2.27,2.27,0,0,0,.45-.2,2.45,2.45,0,0,0,.33-.23l.2-.18Z"/><path class="cls-1" d="M158.53,12.31h0a2.93,2.93,0,0,1,.34-.36,2.19,2.19,0,0,1,.41-.29,2.14,2.14,0,0,1,.5-.2,2.51,2.51,0,0,1,1.31,0,1.47,1.47,0,0,1,.58.34,1.63,1.63,0,0,1,.39.61,2.63,2.63,0,0,1,.14.93v3.73h-.91V13.53a1.56,1.56,0,0,0-.28-1,1,1,0,0,0-.81-.32,1.76,1.76,0,0,0-.91.26,2.42,2.42,0,0,0-.76.72v4h-.91V11.54h.7Z"/><path class="cls-1" d="M166.91,17.12a1.89,1.89,0,0,1-.36.09,3.87,3.87,0,0,1-.57,0,2.4,2.4,0,0,1-.76-.11,1.43,1.43,0,0,1-.54-.31,1.26,1.26,0,0,1-.32-.49,1.84,1.84,0,0,1-.11-.64V12.32h-1.07v-.78h1.07V10h.91v1.52h1.66v.78h-1.66v3.25a1.11,1.11,0,0,0,.06.36.73.73,0,0,0,.18.28.82.82,0,0,0,.31.19,1.34,1.34,0,0,0,.45.07l.38,0,.37-.08Z"/><path class="cls-1" d="M168.2,17.11V11.54h.91v5.57ZM170,8.47l-.94,2h-.76l.72-2Z"/><path class="cls-1" d="M174.18,16.49h0a1.81,1.81,0,0,1-.28.28,2,2,0,0,1-.39.25,2.42,2.42,0,0,1-.49.17,2.36,2.36,0,0,1-.56.06,2.19,2.19,0,0,1-.74-.12,1.62,1.62,0,0,1-.58-.35,1.59,1.59,0,0,1-.38-.57,2,2,0,0,1-.13-.76,1.78,1.78,0,0,1,.15-.74,1.58,1.58,0,0,1,.42-.56,1.9,1.9,0,0,1,.65-.35,2.69,2.69,0,0,1,.83-.12,4.63,4.63,0,0,1,.8.08,4.18,4.18,0,0,1,.66.18h0v-.39a2.48,2.48,0,0,0,0-.4,1,1,0,0,0-.1-.31,1.18,1.18,0,0,0-.49-.47,1.87,1.87,0,0,0-.9-.18,3.81,3.81,0,0,0-.79.08,5,5,0,0,0-.74.22v-.76l.33-.13.4-.11.45-.07.47,0a2.82,2.82,0,0,1,1.38.3,1.78,1.78,0,0,1,.77.79,1.59,1.59,0,0,1,.13.41,3,3,0,0,1,0,.5v3.71h-.76Zm0-1.83-.59-.13a4.48,4.48,0,0,0-.76-.07,1.47,1.47,0,0,0-.9.25.89.89,0,0,0-.33.76,1.15,1.15,0,0,0,.08.45.85.85,0,0,0,.22.32.92.92,0,0,0,.34.19,1.38,1.38,0,0,0,.42.06,1.68,1.68,0,0,0,.54-.08,2.27,2.27,0,0,0,.45-.2,2.45,2.45,0,0,0,.33-.23l.2-.18Z"/><path class="cls-1" d="M177.45,13a.66.66,0,0,0,.1.38.73.73,0,0,0,.26.24,1.68,1.68,0,0,0,.38.15l.44.11.6.16a1.76,1.76,0,0,1,.52.25,1.22,1.22,0,0,1,.38.46,1.67,1.67,0,0,1,.15.75,1.64,1.64,0,0,1-.16.75,1.52,1.52,0,0,1-.46.54,2.16,2.16,0,0,1-.71.33,3.45,3.45,0,0,1-.91.11,4.34,4.34,0,0,1-.55,0l-.44-.08-.33-.1-.22-.1v-.76a4.81,4.81,0,0,0,.68.22,3.19,3.19,0,0,0,.75.08,2.64,2.64,0,0,0,.58-.06,1.47,1.47,0,0,0,.45-.17.82.82,0,0,0,.29-.29.78.78,0,0,0,.1-.4.74.74,0,0,0-.09-.39.77.77,0,0,0-.25-.25,1.49,1.49,0,0,0-.36-.16l-.43-.12-.6-.15a2.11,2.11,0,0,1-.55-.25,1.2,1.2,0,0,1-.4-.43,1.42,1.42,0,0,1-.15-.7,1.71,1.71,0,0,1,.16-.76,1.51,1.51,0,0,1,.43-.53,1.86,1.86,0,0,1,.63-.32,2.66,2.66,0,0,1,.76-.11,4,4,0,0,1,.86.09,4.25,4.25,0,0,1,.72.22v.77a5.3,5.3,0,0,0-.69-.22,3.29,3.29,0,0,0-.72-.09,2,2,0,0,0-.54.06,1,1,0,0,0-.37.18.68.68,0,0,0-.21.27A.87.87,0,0,0,177.45,13Z"/><path class="cls-1" d="M10,6a13,13,0,0,1,3.82-1.67v6.81l.66.66V4.2A13.24,13.24,0,0,1,15.76,4V14.45l1.31,1.31,1.31-1.31V4a13.19,13.19,0,0,1,1.31.2v7.62l.66-.66V4.35A13,13,0,0,1,24.18,6c.26.17.52.35.77.54l.94-.94c-.25-.19-.5-.38-.76-.55A14.35,14.35,0,0,0,18.46,2.7L17.08,0,15.69,2.7A14.34,14.34,0,0,0,9,5.08c-.26.17-.51.36-.76.55l.94.94c.25-.19.51-.37.77-.54"/><path class="cls-1" d="M4.36,20.36h6.81l.66-.66H4.2A13.16,13.16,0,0,1,4,18.39H14.45l1.31-1.31-1.31-1.31H4a13.16,13.16,0,0,1,.2-1.31h7.62l-.66-.66H4.36A13.08,13.08,0,0,1,6,10q.26-.4.54-.77l-.94-.94q-.29.37-.55.76A14.37,14.37,0,0,0,2.7,15.69L0,17.08l2.7,1.39a14.37,14.37,0,0,0,2.38,6.67q.26.39.55.76L6.57,25q-.28-.38-.54-.78a13.06,13.06,0,0,1-1.67-3.82"/><path class="cls-1" d="M24.18,28.12a13,13,0,0,1-3.82,1.67V23l-.66-.66v7.62a13.15,13.15,0,0,1-1.31.2V19.7l-1.31-1.31L15.76,19.7V30.14a13.21,13.21,0,0,1-1.31-.2V22.33l-.66.66V29.8A13,13,0,0,1,10,28.12c-.26-.17-.52-.35-.77-.54l-.94.94q.37.29.76.55a14.37,14.37,0,0,0,6.67,2.38l1.38,2.7,1.39-2.7a14.36,14.36,0,0,0,6.67-2.38q.39-.26.76-.55L25,27.58q-.38.29-.77.54"/><path class="cls-1" d="M34.15,17.08l-2.7-1.38A14.37,14.37,0,0,0,29.07,9q-.26-.39-.55-.76l-.94.94c.19.25.37.51.54.77a13.06,13.06,0,0,1,1.67,3.82H23l-.66.66h7.62a13.15,13.15,0,0,1,.2,1.31H19.7l-1.31,1.31,1.31,1.31H30.14a13.11,13.11,0,0,1-.2,1.31H22.33l.66.66H29.8a13.05,13.05,0,0,1-1.67,3.82q-.26.4-.54.77l.94.94c.19-.25.38-.5.55-.76a14.37,14.37,0,0,0,2.39-6.67Z"/></g></g></svg>